<?xml version="1.0" encoding="UTF-8"?>
<svg id="Layer_1" xmlns="http://www.w3.org/2000/svg" viewBox="0 0 388.72 384.69">
  <defs>
    <style>
      .cls-1 {
        fill: #19381d;
      }
    </style>
  </defs>
  <path class="cls-1" d="M382.08,375.93c-1.16,1.31-7.26,7.92-16.02,7.54-2.33-.1-4.34-.68-5.93-1.34-2.91-1.13-6.67-2.87-10.71-5.53-6.63-4.37-10.64-9.04-11.9-10.48-15.68-17.94-94.58-94.38-128.37-128.16-3.73-3.73-7.69-7.22-12.2-11.42-63.58,65.33-111.14,112.16-123.83,123.83-7.52,6.92-15.23,13.87-15.23,13.87-7.71,6.96-14.67,13.15-20.69,18.45-2.69,1.06-6.71,2.2-11.55,1.96-12.8-.63-20.68-10.32-22.14-12.18-.94-1.55-5.6-9.49-2.42-16.94.42-.98,1.02-2.07,1.91-3.17,8.34-9.36,15.16-16.75,19.34-21.25,48.22-51.81,73.6-73.62,128.26-128.28,3.73-3.73,7.24-7.69,11.36-12.08C97.57,127.77,51.39,80.76,40.23,69.05c-12.47-13.09-24.81-26.32-24.81-26.32-3.03-3.24-5.47-5.88-6.97-7.49-1.1-1.74-3.26-5.68-3.37-11.09-.08-3.83.9-6.86,1.64-8.64C11.03,9.73,19.38.38,30.47,0c7.6-.25,15.38,4.6,25.34,14.53,43.18,43.07,86.31,86.2,129.48,129.28,3.78,3.77,7.76,7.36,13.62,12.91,15.22-15.93,29.64-31.5,44.58-46.56,33.53-33.8,67.16-67.49,101.06-100.91,11.76-11.59,26.92-11.55,36.9-1.02,9.57,10.09,8.9,24.08-1.8,35.91-2.66,2.94-5.56,5.67-8.36,8.47-42.44,42.41-84.89,84.81-127.32,127.24-3.44,3.44-6.69,7.07-12.21,12.93,15.17,14.29,30.15,27.88,44.52,42.08,32.8,32.41,65.33,65.1,97.91,97.73,3.94,3.95,14.27,12.68,14.52,25.13.16,8.06-3.87,14.55-6.63,18.2Z"/>
</svg>