<?xml version="1.0" encoding="UTF-8"?>
<svg id="Layer_1" xmlns="http://www.w3.org/2000/svg" viewBox="0 0 2607 1422.17">
  <defs>
    <style>
      .cls-1 {
        fill: #ffef96;
      }

      .cls-2 {
        fill: #b3e0e1;
      }
    </style>
  </defs>
  <rect class="cls-2" x="5.66" y=".66" width="2600.66" height="1420.85"/>
  <g>
    <path class="cls-1" d="M600.7,1344.44l.08.25s0-.03.01-.05c.01-.05.04-.12.05-.17.01-.04.03-.08.03-.08l-.18.05Z"/>
    <path class="cls-1" d="M600.7,1344.44l-167.38,48.17c.08.88.14,1.76.19,2.66,2.33.7,4.63,1.59,7.02,2.09,10.07,2.13,20.11,4.6,30.3,6.07,6.53.93,9.55,4.2,12.07,9.76,1.36,3,2.74,5.99,4.16,8.98h6.51c-2.83-5.85-5.72-11.81-8.74-18.08,23.74-11.36,47.12-22.56,70.53-33.75.24.41.5.82.76,1.22-16.6,11.26-32.89,22.98-49.93,33.57-7.35,4.57-9.5,9.57-7.63,17.04h6.15c-.3-1.82-.61-3.66-.92-5.53,8.82,1.87,16.91,3.57,26.26,5.53h27.31c-16.56-3.53-32.77-6.99-49.89-10.64,28.12-19.09,55.08-37.38,82.52-55.99-.22,2.08-.6,4.82-1.3,7.99-.19.83-.73,3.21-1.92,6.94-.98,3.05-2.4,7.06-4.45,11.73-.19.24-.37.47-.49.74-1.46,2.9-2.22,6.14-3.28,9.23-3.39,9.9-6.78,19.84-10.26,30h5.92c1.07-2.46,2.15-5.68,3.55-9.76,3.09-9.07,6.29-18.12,9.15-27.27.07.11.14.22.19.34,4.43-13.62,9-27.22,13.67-40.8,0,0,0-.03.01-.05.01-.05.04-.12.05-.17.01-.04.03-.08.03-.08l-.18.05h0ZM505.41,1387.93c-1.84.9-3.88,1.53-5.49,2.73-15.38,11.34-31.55,8.28-49.4,2.16l105.63-30.41c.15.33.3.65.43.96-17.05,8.19-34.11,16.37-51.17,24.56Z"/>
  </g>
  <g>
    <path class="cls-1" d="M157.76,1246.99c3.88-5.56,5.29-11.36,1.12-17.38-5.5-7.97-16.93-8.24-23.4-.17-3.75,4.66-6.51,10.1-9.7,15.18-.62-.24-1.25-.47-1.88-.7-.47-1.45-1.1-2.86-1.4-4.33-1.12-5.49-2.94-10.98-3.05-16.51-.27-16.59-10.45-26.05-24.27-32.76-3.74-1.82-8.74-2.84-12.79-2.19-25.86,4.28-51.58,9.17-77.4,13.76v9.67c.72-.26,1.54-.47,2.51-.65,21.24-3.63,42.39-7.58,63.6-11.4,1.21-.21,2.48-.2,4.5-.34,1.38,7.23,2.7,13.73,3.86,20.25.87,4.9,3.48,6.66,8.56,5.56,6.65-1.44,13.42-2.48,21.02-3.86,2.25,11.73,4.53,23.23,6.55,34.78.22,1.15-.98,2.63-1.75,3.82-2.09,3.12-3.97,6.49-6.56,9.19-8.92,9.3-10.62,20.86-11.55,32.74-.46,5.93,2.71,8.11,8.17,5.43,6.42-3.17,12.68-6.69,19.68-10.42,1.97,10.27,3.93,20.15,5.71,30.08.88,4.86-2.74,5.9-6.53,6.58-13.21,2.4-26.44,4.79-39.65,7.19-15.95,2.88-31.9,5.78-47.85,8.63-7.86,1.4-9.03.68-10.45-6.72-6.61-34.41-13.16-68.82-19.81-103.21v51l11.57,60.43c3.08,4.99,7.6,7.93,13.46,8.98l100.84-18.24c7.36-4.99,9.23-11.68,7.33-20.06-2.33-10.31-4.35-20.74-5.87-31.21-.46-3.09.33-7.04,2.06-9.67,7.48-11.32,15.56-22.31,23.38-33.45h0ZM88.73,1214.82l-3.52-18.37c8.99,3.37,15.64,8.4,22.92,14.85l-19.39,3.52ZM147.81,1233.17c.54-.28,3.54,2,3.4,2.74-.64,3.2-1.99,6.27-3.55,10.69-3.31-2.71-5.39-4.42-9.09-7.45,3.32-2.24,6.13-4.39,9.24-5.98h0ZM107.64,1294.74c-.47-.3-.94-.61-1.4-.91.85-3.83,1.71-7.65,2.81-12.64,3.65,2.44,6.03,4.04,9.66,6.48-4.35,2.78-7.71,4.92-11.07,7.07ZM122.44,1279.18c-2.1-1.38-4.51-2.98-6.65-4.41,6.41-8.97,12.4-17.4,18.74-26.3,2.05,1.34,4.45,2.92,6.55,4.31-6.34,8.99-12.29,17.43-18.63,26.4h0Z"/>
    <path class="cls-1" d="M92.66,1238.37c.72,4.02-2.43,5.2-5.87,5.81-10.29,1.8-20.56,3.7-30.84,5.56-10.29,1.86-20.57,3.69-30.84,5.6-3.46.65-6.82.62-7.62-3.37-.83-4.11,2.52-5.2,5.85-5.82,20.57-3.73,41.12-7.44,61.69-11.14,3.32-.61,6.88-.76,7.63,3.37h0Z"/>
    <path class="cls-1" d="M77.11,1260.41c0,1.83-3.18,4.71-5.43,5.28-7.2,1.86-14.62,2.84-21.97,4.17-7.35,1.33-14.27,2.54-21.39,3.88-3.52.66-7.14.29-7.16-3.67-.01-1.83,3.18-4.85,5.38-5.31,14.38-3,28.89-5.44,43.37-8.05,3.4-.61,7.2-.4,7.2,3.69Z"/>
    <path class="cls-1" d="M80.89,1278.52c-1.79,1.9-3.27,4.92-5.41,5.48-7.41,1.91-15.04,2.94-22.59,4.31-7.13,1.29-14.22,2.94-21.41,3.65-2.21.22-4.7-2.08-7.06-3.24,1.78-1.91,3.29-5.07,5.39-5.5,14.6-3.04,29.29-5.69,44.03-7.97,2.11-.33,4.69,2.11,7.06,3.28h-.01Z"/>
    <path class="cls-1" d="M84.42,1296.93c-1.8,1.88-3.29,4.89-5.46,5.45-7.18,1.87-14.62,2.86-21.95,4.17-7.33,1.32-14.26,2.53-21.39,3.88-3.47.66-7.13.54-7.36-3.42-.11-1.79,3-5.03,5.12-5.46,14.6-3.04,29.29-5.69,44.02-7.95,2.11-.33,4.68,2.13,7.03,3.32h-.01Z"/>
    <path class="cls-1" d="M108.7,1321.64c-1.37,1.8-2.44,4.83-4.15,5.23-9.12,2.09-18.36,3.77-27.65,4.99-1.73.24-3.85-2.23-5.77-3.44,1.37-1.79,2.4-4.64,4.17-5.2,4.62-1.46,9.57-1.94,14.38-2.8,4.4-.79,8.78-2.04,13.2-2.16,1.9-.05,3.88,2.2,5.8,3.41v-.03Z"/>
  </g>
  <path class="cls-1" d="M2470.23,1096.34l-6.1-4.79,3.92-4.7c15.04-18.08,30.18-36.09,45.07-54.27,9.78-11.97,7.56-26.88-4.85-34.8-9.13-5.83-21.25-4.7-29.1,2.77-1.26,1.19-2.44,2.46-3.54,3.79-15.72,18.87-31.48,37.69-47.04,56.69-2.21,2.7-4.04,6.11-4.78,9.47-1.42,6.4,2.28,12.62,8.38,15.68,5.76,2.88,12.93,2.15,17.59-2.45,3.93-3.87,7.35-8.27,10.9-12.51,9.88-11.81,19.72-23.64,29.52-35.51,4.23-5.12,4.21-9.44.18-12.55-4-3.08-8.24-2.11-12.56,3.04-11.55,13.8-23.01,27.64-34.52,41.47l-3.82,4.6-5.96-4.67c.92-1.22,1.84-2.59,2.89-3.86,11.82-14.23,23.63-28.47,35.49-42.68,6.76-8.1,16.24-9.67,23.57-3.96,7.33,5.72,7.83,15.13,1.14,23.2-12.58,15.17-25.18,30.34-37.82,45.47-9.27,11.1-23.91,13.02-34.52,4.64-10.58-8.39-11.57-22.58-2.28-33.79,14.91-17.97,29.86-35.91,44.78-53.86,14.01-16.86,23.57-19.59,44.56-12.79l8.21,6.45c1.5,2.48,3.23,4.87,4.46,7.48,5.04,10.64,4.74,21.44-2.55,30.62-16.56,20.81-33.91,41.05-51.21,61.85h.01Z"/>
  <g>
    <path class="cls-1" d="M528.8,892.49c-1.06-7.86-6.11-13.17-12.68-15.05-2.62-.75-5.52-2.66-6.98-4.86-5.75-8.66-13.65-14-24.14-14.38-5.45-.2-7.79-1.92-9.95-6.65-10.19-22.29-32.69-33.38-56.63-28.48-23.08,4.73-39.11,24.31-39.17,48.31-.14,37.56-.11,75.11.07,112.68.03,2.84,1.72,5.7,2.63,8.53h26.13c.76-3.37,2.14-6.74,2.15-10.13.16-36.67.05-73.33.15-110.01.01-10.77,5.6-18.12,14.54-19.91,9.84-1.98,17.52,2.4,22.47,12.26,1.99,3.98,2.14,6.79-1.06,10.63-6.49,7.76-7.3,16.87-4.49,26.49.66,2.3.22,5.44-.91,7.61-3.21,6.18-2.63,12.93,2.55,19.24,4.35,5.29,10.45,7.37,16.57,4.87,20.64-8.45,41.09-17.36,61.39-26.55,5.88-2.67,8.19-8.3,7.35-14.62h0ZM501.54,881.03c-15.92,6.9-31.79,13.79-48.15,20.88-5.37-12.23-1.71-21.82,9.81-27.17,3.5-1.63,7.03-3.19,10.61-4.66,11.63-4.75,21.51-1.08,27.73,10.94h0ZM423.4,842.54c-14.05,3.02-23.4,13.93-23.46,28.14-.15,34.63-.05,69.26-.07,103.9v7.53h-9.59c-.24-1.45-.64-2.7-.64-3.95-.03-35.75-.31-71.5.08-107.26.28-24.82,20.44-41.81,45.26-38.4,17.14,2.37,27.44,12.93,33.15,29-3.28,1.4-5.94,2.53-9,3.83-1.29-2.55-2.33-4.71-3.44-6.86-6.3-12.21-19.46-18.7-32.29-15.93ZM514.62,899.43c-18.76,8.06-37.5,16.16-56.24,24.27-4.09,1.78-6.29-.05-8.1-3.53-1.98-3.75-.51-5.77,2.98-7.27,18.97-8.15,37.92-16.37,56.92-24.45,4.65-1.99,8.31.83,8.2,5.98l2.79,2.71c-2.18.75-4.42,1.38-6.55,2.29h0Z"/>
    <path class="cls-1" d="M555.2,945.91v5.33c-2.48.58-5.81,2.42-7.24,1.5-2.75-1.79-4.69-5-6.34-7.95-.38-.68,2.09-3.99,2.6-3.85,3.02.82,5.88,2.26,8.77,3.56.79.37,1.46.93,2.21,1.41h0Z"/>
    <path class="cls-1" d="M480.4,949.15c-3.18,3.19-5,6.62-7.11,6.78-5.15.41-6.29-4.08-5.62-7.82.42-2.36,3.2-4.31,4.92-6.44,2.25,2.15,4.49,4.29,7.82,7.47h0Z"/>
    <path class="cls-1" d="M533.58,928.24c-3.88,2.63-6.98,5.45-7.55,5.02-3.16-2.33-5.81-5.36-8.2-8.47-.22-.26,3.7-4.49,4.3-4.17,3.48,1.7,6.55,4.2,11.45,7.62h0Z"/>
    <path class="cls-1" d="M506.93,939.26c-3.5,2.63-5.3,5.12-7.25,5.23-5.46.29-6.34-4.54-6.86-8.22-.23-1.54,2.87-3.52,4.46-5.28,2.76,2.37,5.52,4.73,9.65,8.26h0Z"/>
    <path class="cls-1" d="M531.57,959.68c-3.69,2.37-6.97,5.12-7.45,4.7-2.87-2.37-5.38-5.32-7.22-8.52-.33-.57,4.2-4.82,4.61-4.56,3.13,1.99,5.81,4.66,10.07,8.37Z"/>
    <path class="cls-1" d="M505.6,970.01c-3.5,2.75-5.29,5.33-7.2,5.44-5.68.3-6.32-4.53-6.34-8.35-.03-1.8,2.78-3.63,4.3-5.46,2.66,2.41,5.31,4.82,9.24,8.37h0Z"/>
    <path class="cls-1" d="M479.8,979.85c-3.58,3.28-5.64,6.76-7.83,6.86-4.8.22-5.65-4.16-4.89-7.68.54-2.45,2.95-4.5,4.53-6.74,2.25,2.07,4.49,4.13,8.2,7.56Z"/>
  </g>
  <g>
    <path class="cls-1" d="M2528.8,201.38c20.38-15.97,26.78-35.82,19.84-59.57-6.64-22.73-21.07-29.88-44.22-22.04-.77-2.78-1.4-5.58-2.33-8.28-3.21-9.3-7.81-18.37-3.12-28.59.46-1-1.8-3.19-3.39-5.77-5.22,8.51-6.07,15.83-3.78,23.57,2.22,7.49,4.49,14.96,6.95,23.15-8.62-3.41-15.8-6.25-23.82-9.44,2.21-11.02-.11-21.32-8.97-29.84-7.55-7.26-11.63-15.87-9.78-26.56.87-4.99-1.76-6.78-6.87-6.72-16.36.2-32.73.25-49.09-.03-5.84-.11-8.51,1.86-7.63,7.51,1.54,9.78-1.8,17.8-8.77,24.77-2.06,2.05-4.15,4.36-5.27,6.94-2.05,4.66-4.63,9.57-4.8,14.45-.57,17.8-.15,35.62-.3,53.44-.03,2.48-.45,5.37-1.8,7.35-6.75,9.88-5.54,16.49,4.69,22.86,1.75,1.08,3.5,2.16,5.5,3.41-5.98,4.2-11.59,8.88-8.74,15.71,1.75,4.2,6.72,8.53,11.18,9.86,3.94,1.17,9.74-.8,13.71-3.07,5.87-3.36,10.84-8.19,16.47-12.6,3.21,10.09,11.51,14.64,21.02,17.54,28.45,8.63,57.72,11.07,87.33,10.51,3.94-.08,7.93-.71,11.76-1.59,11.37-2.65,13.47-9.51,5.34-17.51-3.28-3.21-7.02-5.99-11.11-9.44h0ZM2495.33,130.98c.96,1.24.37,3.61.47,5.06-4.69-.61-7.75-1-12.17-1.58,7.49,12.1,19.88,12.17,26.74,1.4-2.17-.95-4.26-1.88-7.96-3.52,2.09-2.52,3.51-5.6,5.95-6.95,10.41-5.75,19.98-3.92,27.23,4.62,15.38,18.12,11.28,50.34-8.12,64.23-3.24,2.33-5.73,2.88-9.92.96-20.98-9.64-42.27-18.61-63.38-27.97-1.63-.72-3.71-2.59-3.85-4.08-1.06-11.31.84-22.14,7.7-31.62,8.8-12.14,28.07-12.42,37.31-.55h0ZM2468.71,101.08c0,4.46.22,8.51-.12,12.51-.12,1.36-1.31,3.23-2.55,3.81-18.38,8.69-21.36,25.06-22.61,42.31-.11,1.42.11,2.87.2,5.07-2.11.13-4.08.24-6.15.37v-64.06s31.22,0,31.22,0ZM2465.26,93.98h-24.48c4.24-5.49,7.87-10.21,12.1-15.67,4.12,5.2,7.91,10.02,12.37,15.67ZM2399.45,57.51h40.41c7.45,0,10.53,4.01,9.22,12.04h-49.63v-12.04ZM2395.46,78.9c1.37-1.54,4.04-2.75,6.14-2.79,14.35-.24,28.7-.12,43.14-.12-3.7,12.3-12.03,18.59-24.37,18.59h-37.12c4.74-6.19,8.21-11.15,12.21-15.68ZM2380.49,101.08h49.99v17.72h-49.99v-17.72ZM2409.19,197.26c-5.01,4.9-10.72,9.24-16.59,13.18-4.69,3.15-9.99,2.41-12.89-2.54-2.99-5.1,1.61-7.74,5.27-10.28.41-.28.92-.4,1.31-.68,2.81-1.98,5.58-3.96,8.38-5.95-3.12-1.69-6.22-3.4-9.36-5.03-1.52-.79-3.23-1.26-4.7-2.12-3.93-2.28-8.54-5.19-6.14-10.01,1.54-3.11,6.15-4.78,9.38-7.1.42.43.84.87,1.25,1.32,3.63.7,7.24,1.62,10.91,2.03,1.68.18,3.48-.66,5.23-1.03-.35-1.53-.45-3.19-1.14-4.57-1.4-2.79-4.02-5.31-4.46-8.18-.43-2.82.47-7.89,2.13-8.48,2.85-1.03,7.77-.49,9.97,1.41,11.8,10.13,12.55,37.19,1.45,48.04h0ZM2417.36,152.58c-2.43-4.39-6.27-9.32-10.71-10.97-4-1.5-10.35-.07-14.37,2.23-4.82,2.74-5.04,8.39-3.16,13.63.49,1.33.81,2.73,1.34,4.52h-10.03v-36.2h50.4c0,12.98.28,25.64-.27,38.27-.09,2.29-3.65,4.45-6.36,7.55-2.49-7.19-3.82-13.55-6.86-19.01ZM2485.53,222.66c.75-3.73,1.33-6.68,2.02-10.15-1.61-.61-3.31-1.22-5.33-1.98-1.33,3.73-2.52,7.11-3.93,11.07-16.83-1.98-33.69-3.92-49.14-11.57-6.76-3.33-9.27-8.85-8-16.2,3.89-22.43,15.69-28.18,37.89-17.88-2.05,7.02-3.85,14.21-6.26,21.2-1.5,4.36-.07,5.74,4.76,5.75,2.6-8.35,5.23-16.74,8.23-26.31,17.63,8.36,34.45,16.33,51.65,24.49-1.07,4.23-1.92,7.64-2.78,11.03,3.56,1.81,6.53-.39,8.9-6.6,5.39,4.45,10.38,8.56,17.1,14.12-19.46,6.93-36.92,3.62-55.12,3.02h0Z"/>
    <path class="cls-1" d="M2514.99,88.6c-6.79-.07-14.18,4.77-14.05,9.2.09,4.12,7.33,8.93,13.59,9.01,6.46.09,14.28-5.03,14.15-9.27-.14-4.12-7.41-8.86-13.69-8.94ZM2506.96,99.21c5.64-5.68,9.65-5.78,13.81,0h-13.81Z"/>
  </g>
  <g>
    <path class="cls-1" d="M318.06,253.13c.35,1.45-1.65,3.44-2.57,5.18-1.67-1.09-4.4-1.88-4.81-3.32-1.69-5.95-2.68-12.1-3.96-18.17l5.76-1.45c1.91,5.91,4.09,11.76,5.58,17.76h0Z"/>
    <path class="cls-1" d="M424.7,299.72l1.48,5.58c-6.08,1.87-12.12,4-18.3,5.43-1.48.34-3.54-1.61-5.31-2.49,1.11-1.62,1.94-4.28,3.4-4.67,6.13-1.66,12.45-2.63,18.72-3.85h.01Z"/>
    <path class="cls-1" d="M362.03,279.52c-26.29-15.74-60.94-6.91-76.56,19.52-15.6,26.39-6.07,59.65,21.81,73.68,11.44,5.77,18.25,13.59,21.1,25.97,4.73,20.71,7.28,21.75,28.61,16.41,22-5.5,22.82-6.86,17.16-28.18-.05-.24-.11-.47-.18-.7-4.12-11.39-1.6-21.35,5.37-31.26,17.77-25.27,9.72-59.23-17.31-75.43h0ZM361.69,406.15c-3.89.59-7.67,1.87-11.51,2.8-10.11,2.53-10.99,1.99-13.39-8.19-.27-1.13-.41-2.3-.68-3.85l30.3-7.6c.69,2.19,1.15,4.02,1.86,5.75,2.63,6.44.56,9.99-6.59,11.07ZM364.31,381.17l-30.41,7.61c-4.17-11.71-13.31-17.9-24-23.27-23.11-11.61-30.67-40.41-17.27-62.94,13.35-22.45,42.42-29.98,64.9-16.84,23.05,13.5,30.49,42.4,15.92,63.93-6.49,9.59-10.67,19.42-9.15,31.51h0Z"/>
    <path class="cls-1" d="M264.1,342.98c-1.14,1.61-1.95,3.78-3.54,4.67-2.03,1.17-4.7,1.34-7.09,1.94-.09.54-.19,1.08-.3,1.62-3.9-.79-10.94-1.04-11.19-2.45-1.22-6.86,5.87-5.11,9.65-6.77,2.21-.96,4.8-1.71,7.16-1.62,1.8.09,3.54,1.67,5.29,2.59h.03Z"/>
    <path class="cls-1" d="M417.38,369.54c-3.27,2.54-5.37,4.95-6.08,4.61-5.68-2.69-11.17-5.79-16.47-9.15-.34-.21,1.4-3.53,2.18-5.4,6.19,3.02,12.39,6.03,20.37,9.94h0Z"/>
    <path class="cls-1" d="M272.63,285.96v3.29c-2.13.91-4.88,3.13-6.26,2.5-4.87-2.25-9.5-5.2-13.67-8.51-.91-.71.39-4.06.68-6.19,6.42,2.96,12.83,5.94,19.27,8.9h-.01Z"/>
    <path class="cls-1" d="M299.87,388.71c-4.07,5.62-7.97,11.17-12.13,16.5-.3.37-3.02-.3-3.73-1.17-.69-.87-.8-2.87-.24-3.9,2.41-4.44,4.99-8.81,7.89-12.96.73-1.04,2.86-1.5,4.36-1.55.87-.03,1.78,1.36,3.86,3.08h-.01Z"/>
    <path class="cls-1" d="M382.59,250.32c-2.86,5.45-6.25,10.64-9.78,15.7-.15.21-3.43-1.65-5.24-2.53,3.12-5.78,6.23-11.55,10.29-19.09,2.48,3,5.12,5.21,4.76,5.94h-.01Z"/>
    <path class="cls-1" d="M367.7,316.55c-.31.71-1.21,2.65-2.09,4.6-1.92-1.25-4.84-2.07-5.62-3.81-6.3-13.96-16.99-19.95-32.57-18.36-1.79.18-3.79-1.76-5.72-2.71,1.52-1.55,2.78-4,4.61-4.53,15.92-4.57,36.71,7.31,41.39,24.81Z"/>
  </g>
  <path class="cls-1" d="M2187.36,229.47c-23.77.16-47.55-.17-71.32-.25-18.55-.05-37.09-.01-55.7-.01-2.28-8.14-4.28-15.58-6.44-22.98-1.79-6.14-5.73-10.19-12.54-10.5-6.93-.29-13.92-.53-20.78.16-2.37.24-4.43,3.32-6.64,5.11,2.24,1.75,4.27,4.6,6.75,5.02,4.81.82,9.89.57,14.81.18,5.14-.38,7.4,1.44,8.69,6.4,4.39,17.03,9.36,33.91,14.07,50.86,3.27,11.79,6.44,23.58,9.62,35.3-12.25,4.89-17.24,10.92-16.33,19.29,1.06,9.84,6.65,13.56,24.18,16.04-1.02,16.57,4.97,26.07,17.52,26.2,4.58.05,9.78-1.75,13.63-4.25,7.98-5.19,7.63-13.76,6.52-22.19h32.84c-.09,2.04-.11,3.69-.26,5.31-.73,8.19,2.15,14.68,9.61,18.86,7.16,3.99,14.37,3.62,20.92-1.08,6.76-4.85,9.41-11.54,7.6-19.7-.3-1.36-.68-2.92-.27-4.16,3.08-9.4,2.47-10.28-7.97-10.3-33.45-.01-66.88,0-100.33,0-1.73,0-3.47.03-5.19-.03-4.19-.12-8.17-1.76-7.11-6.12.6-2.49,4.57-4.5,7.41-6.04,1.52-.82,3.88-.16,5.85-.16,32.2,0,64.41.01,96.61-.01,11.76-.01,15.23-2.79,18.02-13.89,4.32-17.22,8.71-34.45,13.06-51.66v-8.68c-4.3-5.4-10.02-6.77-16.86-6.72h0ZM2157.22,341.65c.62-3.06,4.63-7.06,7.75-7.68,4.81-.96,8.12,2.58,8.48,10.27-1.96,1.33-4.8,4.67-8.09,5.18-5.05.79-9.11-2.98-8.14-7.77ZM2094.95,333.72c4.73.09,7.94,3.08,7.93,7.87-.01,5.12-3.39,8.6-8.42,7.82-3.29-.5-6.14-3.83-8.09-5.16.35-7.73,3.48-10.63,8.58-10.53ZM2064.51,240.4h23.77c1.11,7.74,2.21,15.43,3.31,23.02-1.4.82-1.6,1.04-1.83,1.05-19.89,1.83-24.43-2.44-25.25-24.07ZM2083.82,299.56c-1.87-.29-4.32-2.28-4.93-4.02-2.2-6.29-3.71-12.81-5.61-19.7,13.68-.99,21.14,4.72,22.37,17.15.19,1.9.31,3.81.56,6.76-4.3,0-8.43.43-12.39-.18ZM2123.58,299.37h-15.68c-1.11-7.74-2.18-15.26-3.39-23.65h19.07v23.65ZM2123.81,264.31h-20.69c-1.1-7.73-2.2-15.3-3.39-23.61h24.08v23.61ZM2151.99,299.38h-15.94v-23.68h19.11c-1.07,8.02-2.1,15.68-3.17,23.68ZM2156.66,264.46h-20.42v-23.74h23.7c-1.12,8.15-2.18,15.85-3.28,23.74ZM2181.8,288.09c-1.96,8.56-8.03,12.21-18.21,10.94.92-7.47,1.83-14.96,2.82-23h18.08c-.92,4.16-1.78,8.12-2.68,12.06ZM2187.34,264.39h-19.09c1.03-8.02,2.01-15.68,3.01-23.57h21.67c-1.92,8.11-3.73,15.72-5.58,23.57Z"/>
  <path class="cls-1" d="M2471.78,1275.5c-8.43-30.92-17.2-61.76-25.95-92.59-2.9-10.22-7.82-13.02-18.13-10.28-40.83,10.81-81.64,21.69-122.44,32.6-10.06,2.69-12.73,7.36-9.99,17.18,5.64,20.19,11.37,40.35,17.06,60.53,5.69,20.17,11.36,40.36,17.09,60.53,3.16,11.15,8.43,14.17,19.69,11.18,30.1-7.95,60.2-15.88,90.19-24.19,3.32-.93,6.87-3.79,8.71-6.7,7.85-12.51,15.3-25.28,22.42-38.23,1.54-2.83,2.2-6.98,1.36-10.05h0ZM2443.13,1313.81c-1.42-5.03-3.43-10.42-4.24-15.99-.28-1.96,1.82-5.53,3.73-6.29,5.39-2.16,11.23-3.24,16.14-4.54-5.11,8.77-10.31,17.7-15.63,26.82h0ZM2448.41,1282.15c-19.12,5.1-20.14,6.87-14.81,25.74l4.26,15.1c-2.45.83-4.45,1.63-6.51,2.17-27.46,7.35-54.91,14.67-82.38,21.95-9.09,2.41-10.19,1.83-12.62-6.77-11.15-39.44-22.16-78.92-33.5-118.29-1.73-6.06-.33-8.66,5.94-10.3,39.92-10.43,79.8-21.11,119.64-31.83,5.04-1.36,8.46-1.17,10.08,4.69,8.28,29.97,16.8,59.88,25.21,89.82.24.9.2,1.84.38,3.53l-15.68,4.17h0Z"/>
  <path class="cls-1" d="M2405,578.42c-3.88-22.06-7.66-44.13-11.45-66.2-2.55-14.71-5.03-29.43-7.6-44.14-.58-3.31-1.73-6.12-4.11-7.69-1.78-1.17-3.65-1.25-5.45-1.3-5.14-.16-10.92,1.79-12.44,3.92-1.78-.5-3.9-.62-6.37-.79-4.31-.3-7.89.12-10.29.55-.11-1.99-.56-5.52-2.71-9.22-1.49-2.57-4.5-7.72-9.49-7.9-4.61-.17-8.1,3.99-9.49,6.58-1.41,2.63-1.38,5.07-1.36,7.9.01.76.01,1.45.07,2.07-28.16,0-56.32-.01-84.5.01-10.1,0-12.77,2.58-12.77,12.35-.03,36.86-.03,73.72-.01,110.57.01,10.63,2.48,12.97,13.65,12.98,27.74.01,55.47,0,83.21,0-.01.36-.01.72-.03,1.09-15.1,2.48-30.17,5.07-45.29,7.33-2.4.37-5.04-.63-7.52-1.19-1.76-.4-3.44-1.11-5.15-1.67.41,2.17.3,5.93,1.34,6.25,4.2,1.34,8.94,2.78,13.15,2.12,37.89-5.87,75.69-12.18,113.53-18.37,10.75-1.75,12.9-4.83,11.07-15.29h0ZM2345.89,482.6c.19,1.28-1.08,2.78-1.68,4.17-1.34-1.05-3.47-1.9-3.88-3.23-1.49-4.82-2.4-9.8-3.62-15.14,1.63-.14,3.43-.32,6.03-.55,1.19,5.37,2.41,10.02,3.14,14.75h0ZM2335.1,450.92c2.41.09,3.92,2.95,4.82,4.67,1.41,2.69,1.53,5.23,1.49,6.61h-10.86c-.28-2-.58-4.02-.88-6.02.95-3.21,3.27-5.35,5.42-5.27h0ZM2355.74,592.48c-38.39-.29-76.79-.24-115.18-.03-5.83.03-7.72-1.58-7.68-7.37.23-36.61.15-73.2.08-109.81-.01-4.27.14-7.4,6.1-7.36,30.95.2,61.91.09,91.73.09,1.75,7.4,2.48,14.16,5.14,20.09,1.07,2.41,6.72,4.74,9.5,4.06,2.75-.67,6.1-5.07,6.32-8.05.38-5.07-1.48-10.3-2.45-15.74,1.72-.14,3.17-.33,4.63-.36,6.63-.14,9.95,2.94,9.96,9.24,0,35.65-.14,71.28.12,106.93.05,6.18-1.53,8.35-8.27,8.3h0ZM2395.9,587.47c-8.44,1.38-16.91,2.65-26.06,4.07v-8.76c0-36.13.01-72.27-.01-108.4-.01-3.03-.3-5.36-1.02-7.12,3.81.05,7.22-2.94,9.76-1.5,2.81,1.58,1.73,6.4,2.66,10.5,1.79,7.98,2.81,16.12,4.21,24.19,4.61,26.57,9.26,53.13,13.85,79.71.53,3.09,1.36,6.54-3.39,7.32h0Z"/>
  <g>
    <path class="cls-1" d="M779.09,408.4c-7.83-5.58-12.7-12.33-17.06-20.12-7.85-14.01-19.99-18.21-35.67-12.87-3.89,1.33-8.17,2.4-12.22,2.23-14.53-.59-26.07,2.99-29.95,18.38-3.58,0-6.55.11-9.51-.01-21.25-.78-36.13,7.78-43.75,27.57-.68,1.79-3.63,2.65-5.08,4.31-2.87,3.27-7.18,6.6-7.59,10.26-.38,3.31,3.59,7.12,5.77,10.64,1.37,2.2,3.9,4.13,4.28,6.45,2.6,15.89,4.74,31.87,7.11,47.8,1.88,12.8,10.3,20.04,23.76,20.07,35.89.09,71.79.11,107.69,0,13.02-.05,21.39-7.27,23.27-19.74,2.45-16.17,4.68-32.37,7.18-48.52.28-1.87,1.4-3.85,2.7-5.27,2.4-2.63,5.22-4.89,7.86-7.3v-7.22c-9.5-9.01-18.19-19.11-28.78-26.67h0ZM786.53,426.03c-17.12,3.99-18.95,6.33-18.96,22.97,0,4.81.49,9.68-.24,14.38-.37,2.32-2.68,5.61-4.69,6.06-1.76.41-4.42-2.44-6.49-4.07-1.53-1.2-2.78-2.77-4.15-4.16-1.15,1.86-2.79,3.58-3.32,5.6-.58,2.26.56,5.07-.34,7.1-1.06,2.42-3.5,4.28-5.34,6.37-1.92-2.08-5.35-4.04-5.52-6.25-.66-8.84-.31-17.75-.34-26.64-.04-15.84-4.42-20.13-20.57-20.16-4.89-.01-9.78,0-14.91,0,4.23-11.61,20.55-22.32,36.54-23.65,20.11-1.66,35.93,6,48.33,22.47h0ZM706.51,385.01c8.47-1.05,16.97-2.08,25.34-3.69,13.48-2.59,19.39.68,25.86,15.14h-65.09c1.64-8.43,7.09-10.6,13.89-11.46h0ZM664.57,403.79c15.87-1.01,31.87-.24,46.97-.24-6.18,6.95-12.17,13.85-18.39,20.56-1.31,1.41-3.48,2.92-5.27,2.95-16.25.24-32.48.13-48.79.13,1.14-11.68,12.02-22.53,25.48-23.4h0ZM628.89,442.55c-1.49-.58-3.35-2.53-3.36-3.9-.01-1.29,1.94-2.95,3.42-3.81,1.14-.66,2.89-.38,4.36-.4,28.64-.01,57.27,0,85.91-.01,5.29,0,9.95.74,10.16,8.66h-33.92c-20,0-40.01.01-60-.01-2.21-.01-4.61.21-6.57-.54h0ZM785.1,487.2c-.73,5.23-1.49,10.47-2.4,15.67-1.45,8.26-6.59,12.96-15.11,13-36.62.12-73.22.12-109.84-.01-7.53-.03-13.38-4.33-14.49-11.11-2.87-17.72-5.2-35.54-7.85-53.91h93.48c.92,3.75,1.99,6.68-3.25,9.14-6.97,3.25-4.15,10.27-3.63,15.55.22,2.32,4.42,4.85,7.33,6.2,4.77,2.23,9.31,3.92,8.42,10.42-.39,2.82-.87,6.14.26,8.53,1.23,2.59,4.2,6,6.55,6.1,2.44.09,5.75-2.9,7.33-5.35,1.26-1.95,1.27-5.4.46-7.72-2.33-6.65.26-11.72,4.51-16.61,15,.28,15.57-.5,18.8-26.24h14.39c-1.67,12.29-3.28,24.32-4.96,36.34h0ZM795.63,442.85c-.61.49-1.9.24-2.87.24-5.64.01-11.26.01-16.89.01-.57-.86-1.14-1.71-1.71-2.57,2.47-1.96,4.66-5.04,7.43-5.65,4.45-.96,9.31-.63,13.92-.16,1.69.17,3.16,2.29,4.73,3.53-1.52,1.55-2.91,3.24-4.61,4.6h0Z"/>
    <path class="cls-1" d="M695.82,367.46c-1.27,1.84-3.96,2.78-6.02,4.1-.31-2.17-.66-4.33-.91-6.52-.28-2.44.45-5.54-.84-7.23-5.33-6.95-4.43-13.22.94-19.49h4.46c-1.56,7.9-.07,15.21,3.69,22.39.88,1.67-.07,4.96-1.31,6.76Z"/>
    <path class="cls-1" d="M732.45,362.5c-1.14,1.07-3.39,1.5-5.04,1.3-.6-.07-1.07-2.7-1.29-4.2-.3-2.15.45-4.78-.58-6.43-3.55-5.7-2.44-10.42,2.09-14.85h2.97c1.41,6.36,3.04,12.68,4.09,19.09.26,1.58-.95,3.87-2.24,5.08h0Z"/>
    <path class="cls-1" d="M658.21,375.36c-.91,1.28-2.51,2.09-5.12,4.19-.81-2.94-2.4-5.5-1.67-6.57,2.93-4.32,1.38-7.41-1.31-11.06-3.74-5.07-3.32-10.48.81-15.21.95-1.08,3.35-.93,5.08-1.36.34,1.66,1.54,3.9.87,4.87-2.85,4.04-1.31,7.03,1.25,10.4,3.6,4.77,3.54,9.88.09,14.74h0Z"/>
    <path class="cls-1" d="M777.53,376.05c-.28.91-3.23,1.04-4.95,1.53-.42-1.63-1.76-3.91-1.11-4.81,3.18-4.35,1.03-7.43-1.46-11.01-3.58-5.15-3.1-10.52,1.04-15.25.87-.99,3.05-1.47,4.45-1.24,1.03.17,1.78,1.91,2.87,3.21-6.6,6.03.12,10.34,1.23,15.51.81,3.75-.85,8.14-2.07,12.05h0Z"/>
    <path class="cls-1" d="M673.64,470.59c-2.25,3.96-3.5,8.02-6.27,10.28-1.41,1.15-8-.62-8.12-1.57-.76-5.89-.72-11.96.09-17.83.12-.91,6.79-2.58,8.17-1.4,2.74,2.33,3.9,6.41,6.13,10.51Z"/>
    <path class="cls-1" d="M689.8,495.89c-2.41,4.15-3.69,8.14-6.45,10.34-1.4,1.12-7.87-.65-8.01-1.63-.81-5.83-.84-11.86-.07-17.7.14-1.03,6.76-2.86,7.98-1.78,2.83,2.54,4.19,6.62,6.55,10.77Z"/>
    <path class="cls-1" d="M720.08,495.86c0,1.67.73,4.02-.14,4.89-2.4,2.45-5.65,6.25-8.23,6.02-7.47-.7-6.25-7.1-6.41-12.3-.15-4.95.73-9.96,6.69-9.85,2.74.04,5.68,3.81,7.97,6.36.85.93.15,3.21.15,4.89h-.04Z"/>
    <path class="cls-1" d="M703.83,470.29c0,1.92.81,4.56-.16,5.62-2.18,2.36-5.41,5.72-7.94,5.52-7.7-.61-6.45-7.05-6.59-12.25-.12-4.95.73-9.97,6.94-9.72,2.68.09,5.5,3.49,7.67,5.9.87.95.15,3.24.15,4.92h-.07Z"/>
  </g>
  <path class="cls-1" d="M1995.88,729.94c-18-10.78-35.99-21.57-54.01-32.37l-9.87,2.26c-2.48,3.08-5.34,5.94-7.44,9.24-24.38,38.23-48.81,76.4-72.73,114.89-3.29,5.32-5.16,12.22-5.38,18.45-.61,17.53-.04,35.07.15,52.61.08,7.77,3.27,9.67,10.45,6.25,15.56-7.4,31.01-15.02,46.65-22.24,7.71-3.56,13.34-8.8,17.77-15.82,22.77-36.16,45.78-72.16,68.59-108.3,3.1-4.91,5.46-10.26,8.16-15.42l-2.33-9.57h0ZM1927.71,726.36c2.75,1.63,5.92,3.54,8.81,5.27-20.79,32.74-41.24,64.91-61.61,96.92-2.89-1.67-6.14-3.54-8.77-5.07,20.44-32.22,40.82-64.39,61.57-97.12h0ZM1947.96,738.45c2.24,1.37,5.27,3.21,7.56,4.62-20.61,32.47-41.02,64.59-61.26,96.44-1.78-1.44-4.66-3.75-6.91-5.56,19.26-30.34,39.65-62.5,60.61-95.51ZM1857.46,889.32c-.03-4.94-.07-8.95-.11-12.94.58-.61,1.18-1.22,1.76-1.83,3.5,2.44,6.99,4.89,11.82,8.24-5.33,2.58-8.86,4.29-13.47,6.53h0ZM1882.23,877.28c-1.03.46-3.21-1.04-4.66-1.95-4.59-2.9-8.71-7.11-13.73-8.6-5.99-1.79-7.13-4.64-6.79-9.99.47-7.56.19-15.17.24-22.75.95-.51,1.91-1.03,2.87-1.54,3.05,2.69,6.93,4.91,8.92,8.19,2.15,3.57,4.21,5.19,8.44,4.77,5.41-.54,9.41,1.87,11.29,6.81,1.5,3.94,4.01,4.9,8.21,5.12,3.81.22,7.52,2.4,11.28,3.7,0,1.17.03,2.36.04,3.53-8.69,4.29-17.31,8.7-26.12,12.72h0ZM1913.29,851.75c-1.68-1.13-4.62-3.11-6.78-4.54,20.04-31.58,40.43-63.68,61.15-96.31,1.37,1.32,4.07,3.9,5.99,5.74-19.28,30.42-39.69,62.54-60.36,95.11h0ZM1982.71,745.47c-16.34-9.81-32.63-19.58-49.05-29.42,3.39-8.05,5.91-8.98,13.84-4.28,10.87,6.47,21.71,12.97,32.53,19.5,8.1,4.9,8.42,7.12,2.68,14.2Z"/>
  <path class="cls-1" d="M1069.14,666.09c-.88-2.17-4.07-4.98-6.15-4.9-4.35.17-6.21-2.03-8.24-4.83-1.91-2.62-4.05-5.08-5.96-7.7-2.75-3.77-5.81-4.46-9.76-1.55-10.38,7.69-20.82,15.31-31.31,22.89-3.67,2.65-4.26,5.57-1.34,9.06,3.44,4.19,6.87,8.36,11.21,13.63-2.52,1.3-4.46,2.04-6.06,3.19-22.51,16.39-44.98,32.84-67.46,49.28-1.31.96-2.71,1.86-3.9,2.96-3.12,2.92-3.37,6.24-.85,9.63,2.51,3.36,5.83,4.15,9.68,2.25,1.14-.57,2.14-1.37,3.18-2.12,37.46-27.38,74.93-54.77,112.4-82.16,1.02-.74,2.48-1.38,2.89-2.4.94-2.33,2.47-5.29,1.68-7.22h0ZM1009.58,675.7c11.51-8.45,22.94-16.86,34.29-25.18,3.02,4.07,6.53,8.8,10.33,13.88-.89.68-2.25,1.76-3.98,3.11-2.01-2.45-3.69-4.73-5.68-6.73-.64-.65-2.11-.54-3.2-.78-.04,1.12-.56,2.54-.04,3.25,1.59,2.17,3.55,4.07,5.3,6-4.2,2.94-7.7,5.37-11.6,8.1-.16-.17-.89-1.19-1.9-1.82-1.59-1.04-3.33-1.83-5.04-2.73.46,1.69.77,3.41,1.4,5.03.45,1.12,1.34,2.07,2.1,3.21-1.5,1.25-2.87,2.38-4.45,3.69-1.42-1.67-2.3-3.07-3.54-4.03-.99-.78-2.4-1.04-3.63-1.54.11,1.41-.04,2.9.42,4.19.47,1.28,1.59,2.33,2.43,3.48-3.56,2.77-4.78,1.7-13.2-11.14h0ZM1064.06,670.5c-.33.86-1.61,1.38-2.49,2.03-37.23,27.21-74.44,54.41-111.67,81.59-1.42,1.04-2.98,1.9-5.9,3.75-.53-2.75-1.46-4.62-1.02-6.08.39-1.29,2.33-2.16,3.65-3.12,36.78-26.89,73.55-53.77,110.33-80.64,1.17-.87,2.28-2.07,3.6-2.4,1.19-.3,3.46-.03,3.81.67.56,1.11.2,2.9-.31,4.2h0Z"/>
  <g>
    <path class="cls-1" d="M2244.22,808.4c-.38,1.45-3.1,2.29-4.76,3.41-.95-1.73-2.99-3.66-2.67-5.12,1.36-6.03,3.42-11.92,5.22-17.87l5.79,1.33c-1.14,6.1-2.01,12.26-3.58,18.24h0Z"/>
    <path class="cls-1" d="M2316.25,897.9l-1.37,5.61c-6.27-1.09-12.63-1.95-18.78-3.48-1.48-.37-2.36-3.02-3.5-4.61,1.76-.93,3.77-2.91,5.26-2.59,6.21,1.3,12.28,3.31,18.4,5.07h-.01Z"/>
    <path class="cls-1" d="M2270.47,851.67c-15.71-25.84-50.62-33.71-77.1-17.38-26.45,16.28-33.96,50.04-16.02,75.06,7.36,10.27,9.65,20.29,6.22,32.53-5.73,20.48-3.98,22.54,17.46,27.47,22.1,5.08,23.47,4.27,28.69-17.17.07-.24.14-.46.18-.7,1.82-11.93,8.81-19.61,19.73-25.23,27.85-14.31,37-48.02,20.84-74.57h0ZM2220.61,956.74c-.76,6.89-4.3,9.1-11.14,6.82-3.73-1.24-7.67-1.82-11.52-2.73-10.15-2.34-10.68-3.23-7.93-13.31.31-1.12.75-2.21,1.25-3.71l30.45,7.01c-.43,2.24-.91,4.07-1.11,5.93h0ZM2246.96,918.88c-10.33,5.56-18.74,12.37-23.19,23.76l-30.56-7.03c1.92-12.25-3.21-21.86-10.1-31.45-14.87-20.74-7.75-49.64,14.91-63.52,22.58-13.81,51.92-7.33,65.5,14.49,13.93,22.37,6.65,51.3-16.56,63.76h0Z"/>
    <path class="cls-1" d="M2153.4,863.49c-1.78.91-3.54,2.46-5.37,2.54-2.37.12-4.8-.93-7.2-1.49-.34.43-.69.87-1.04,1.3-3.08-2.46-9.19-5.87-8.73-7.23,2.21-6.62,7.64-1.87,11.79-1.62,2.41.14,5.07.65,7.1,1.8,1.54.9,2.33,3.08,3.44,4.69Z"/>
    <path class="cls-1" d="M2276.3,956.36c-4.12.78-7.11,1.95-7.59,1.33-3.74-4.95-7.1-10.18-10.18-15.55-.19-.34,2.93-2.49,4.51-3.79,4.02,5.48,8.08,10.94,13.25,18.01Z"/>
    <path class="cls-1" d="M2188.28,816.89c-.53.97-1.06,1.95-1.59,2.91-2.32-.16-5.83.57-6.75-.62-3.23-4.19-5.91-8.9-8.02-13.71-.46-1.04,2.29-3.41,3.58-5.18,4.27,5.53,8.51,11.06,12.78,16.59h0Z"/>
    <path class="cls-1" d="M2163.13,920.16c-6.29,3.13-12.4,6.27-18.63,9.11-.43.2-2.52-1.63-2.74-2.73-.19-1.09.66-2.91,1.64-3.56,4.26-2.83,8.63-5.54,13.19-7.9,1.15-.59,3.25-.04,4.61.59.77.37.92,2,1.94,4.48Z"/>
    <path class="cls-1" d="M2302.67,835.12c-5.15,3.53-10.62,6.58-16.18,9.45-.24.12-2.25-3-3.43-4.62,5.53-3.71,11.05-7.4,18.25-12.25.76,3.77,2.03,6.94,1.36,7.4h0Z"/>
    <path class="cls-1" d="M2257.73,886.99c-.62.47-2.33,1.8-4.05,3.13-1.11-1.98-3.29-4.02-3.16-5.91,1.11-15.21-5.48-25.35-20.02-30.98-1.67-.65-2.52-3.28-3.75-4.99,2.09-.68,4.38-2.28,6.25-1.92,16.28,3.16,28.99,23.08,24.73,40.68Z"/>
  </g>
  <g>
    <path class="cls-1" d="M1107.78,343.26c-3.79-2.62-7.98-4.73-12.62-7.44,17.22-19.15,20-39.77,8.93-62.01-10.58-21.27-26.07-25.88-47.47-14.27-1.26-2.61-2.37-5.27-3.77-7.77-4.82-8.61-10.96-16.78-8.16-27.63.27-1.07-2.34-2.84-4.36-5.12-3.63,9.26-3.17,16.62.47,23.86,3.51,7.01,7.07,13.97,10.96,21.64-9.09-1.92-16.68-3.52-25.15-5.31.22-11.22-3.9-20.98-14.15-27.88-8.71-5.87-14.27-13.67-14.37-24.52-.03-5.06-2.94-6.37-7.96-5.45-16.07,2.94-32.19,5.74-48.35,8.22-5.77.88-8.05,3.27-6.18,8.68,3.27,9.38,1.4,17.83-4.23,25.86-1.65,2.37-3.31,4.99-3.96,7.73-1.18,4.92-2.86,10.21-2.15,15.02,2.62,17.63,6.19,35.12,9.22,52.69.42,2.45.51,5.37-.46,7.55-4.89,10.85-2.52,17.17,8.69,21.73,1.91.76,3.82,1.54,6.03,2.44-5.15,5.14-9.84,10.68-5.81,16.93,2.47,3.85,8.13,7.28,12.77,7.84,4.09.49,9.45-2.42,12.96-5.32,5.19-4.29,9.23-9.89,13.97-15.18,4.96,9.39,13.95,12.48,23.82,13.75,29.56,3.71,58.83,1.2,87.89-4.33,3.88-.74,7.68-2.03,11.3-3.54,10.73-4.52,11.57-11.63,2.14-18.15h0ZM1049.65,272.11c1.18,1.05,1,3.49,1.37,4.9-4.72.2-7.81.32-12.26.49,9.54,10.67,21.75,8.65,26.59-3.11-2.3-.58-4.53-1.15-8.47-2.13,1.61-2.83,2.47-6.1,4.62-7.85,9.23-7.41,18.99-7.22,27.65-.03,18.38,15.26,20.06,47.7,3.43,64.64-2.76,2.83-5.12,3.79-9.59,2.61-22.37-5.97-44.94-11.22-67.41-16.89-1.72-.45-4.12-1.94-4.51-3.37-3.05-10.97-3.12-21.95,1.95-32.43,6.51-13.44,25.44-16.95,36.64-6.82h0ZM1018.12,247.13c.8,4.4,1.73,8.35,2.11,12.34.12,1.36-.73,3.4-1.84,4.17-16.55,11.65-16.57,28.27-14.73,45.47.15,1.42.62,2.82,1.11,4.96-2.06.49-3.98.92-6,1.4l-11.4-63.1,30.75-5.24h0ZM998.48,227.36c4.99,4.44,9.58,8.55,14.98,13.35l-24.11,4.12c3.2-6.12,5.94-11.38,9.13-17.47ZM981.95,209.06c7.35-1.26,11.09,2.18,11.22,10.31l-48.88,8.34-2.14-11.85,39.8-6.79ZM942.02,237.59c1.08-1.75,3.5-3.38,5.56-3.78,14.09-2.65,28.24-4.94,42.46-7.36-1.45,12.73-8.54,20.33-20.68,22.4l-36.56,6.24c3.56-6.89,6.1-12.36,9.23-17.5h0ZM934.38,279.42l-3.16-17.46,49.25-8.4,3.14,17.46-49.23,8.4ZM976.62,351.87c-4.08,5.66-8.92,10.9-14,15.76-4.05,3.88-9.41,4.06-13.15-.34-3.86-4.5.22-7.89,3.36-11.01.35-.34.84-.54,1.18-.9,2.41-2.42,4.78-4.85,7.18-7.27-3.37-1.13-6.74-2.3-10.11-3.38-1.64-.53-3.42-.7-5.01-1.29-4.28-1.59-9.34-3.69-7.83-8.84.98-3.32,5.22-5.74,7.98-8.56.49.36.98.71,1.46,1.08,3.7.08,7.41.38,11.1.17,1.69-.11,3.32-1.24,4.97-1.9-.62-1.44-1.02-3.06-1.94-4.31-1.87-2.52-4.91-4.56-5.84-7.31-.94-2.7-.95-7.85.58-8.7,2.62-1.49,7.56-1.79,10.07-.29,13.43,7.99,18.99,34.51,9.99,47.08h0ZM986.85,324.06c-3.74-6.66-6.18-12.71-10.14-17.58-3.17-3.91-7.85-8.12-12.5-8.99-4.21-.82-10.22,1.67-13.76,4.6-4.27,3.52-3.48,9.11-.69,13.96.72,1.22,1.29,2.54,2.13,4.23l-9.88,1.69-6.44-35.66,49.64-8.47c2.3,12.79,4.84,25.2,6.55,37.74.31,2.26-2.81,4.99-4.92,8.49h0ZM1056.32,364.05c.07-3.79.12-6.79.19-10.34-1.71-.33-3.48-.65-5.6-1.05-.65,3.9-1.22,7.43-1.91,11.57-16.93.88-33.88,1.79-50.45-3.15-7.25-2.15-10.71-7.15-10.76-14.6-.16-22.74,10.45-30.39,34.14-23.98-.76,7.26-1.26,14.64-2.39,21.93-.7,4.54.95,5.68,5.71,4.87,1.07-8.66,2.17-17.37,3.42-27.3,18.85,5.28,36.83,10.3,55.24,15.45-.31,4.35-.54,7.85-.77,11.34,3.82,1.19,6.35-1.48,7.59-7.99,6.1,3.48,11.75,6.69,19.35,11.02-17.93,10.1-35.71,9.77-53.75,12.23h0Z"/>
    <path class="cls-1" d="M1076.56,233.57c-.87-4.04-8.88-7.48-15.07-6.51-6.69,1.07-13.12,7.07-12.21,11.43.83,4.04,8.81,7.56,15,6.58,6.38-1,13.17-7.36,12.28-11.51h0ZM1055.45,238.86c4.54-6.53,8.47-7.31,13.61-2.32l-13.61,2.32Z"/>
  </g>
  <path class="cls-1" d="M139.09,138.6c-3.88-22.06-7.66-44.13-11.45-66.2-2.55-14.71-5.03-29.43-7.6-44.14-.58-3.31-1.73-6.12-4.11-7.69-1.78-1.17-3.65-1.25-5.45-1.3-5.14-.16-10.92,1.79-12.44,3.92-1.78-.5-3.9-.62-6.37-.79-4.31-.3-7.89.12-10.29.55-.11-1.99-.56-5.52-2.71-9.22-1.49-2.57-4.5-7.72-9.49-7.9-4.61-.17-8.1,3.99-9.49,6.58-1.41,2.63-1.38,5.07-1.36,7.9.01.76.01,1.45.07,2.07H4.99v5.81c20.23.03,40.3-.01,59.89-.01,1.75,7.4,2.48,14.16,5.14,20.09,1.07,2.41,6.72,4.74,9.5,4.06,2.75-.67,6.1-5.07,6.32-8.05.38-5.07-1.48-10.3-2.45-15.74,1.72-.14,3.17-.33,4.63-.36,6.63-.14,9.95,2.94,9.96,9.24,0,35.65-.14,71.28.12,106.93.05,6.18-1.53,8.35-8.27,8.3-28.28-.21-56.57-.24-84.84-.14v5.79h53c-.01.36-.01.72-.03,1.09-15.1,2.48-30.17,5.07-45.29,7.33-2.4.37-5.04-.63-7.52-1.19-.05-.01-.11-.03-.16-.04-1.71-.4-3.33-1.08-4.99-1.63.41,2.17.3,5.93,1.34,6.25,1.18.38,2.4.76,3.65,1.11,3.18.88,6.48,1.49,9.5,1.01,37.89-5.87,75.69-12.18,113.53-18.37,10.75-1.75,12.9-4.83,11.07-15.29ZM64.64,22.39c-.28-2-.58-4.02-.88-6.02.95-3.21,3.27-5.35,5.42-5.27,2.41.09,3.92,2.95,4.82,4.67,1.41,2.69,1.53,5.23,1.49,6.61,0,0-10.86,0-10.86,0ZM78.29,46.96c-1.34-1.05-3.47-1.9-3.88-3.23-1.49-4.82-2.4-9.8-3.62-15.14,1.63-.14,3.43-.32,6.03-.55,1.19,5.37,2.41,10.02,3.14,14.75.19,1.28-1.08,2.78-1.68,4.17ZM129.98,147.66c-8.44,1.38-16.91,2.65-26.06,4.07v-8.76c0-36.13.01-72.27-.01-108.4-.01-3.03-.3-5.36-1.02-7.12,3.81.05,7.22-2.94,9.76-1.5,2.81,1.58,1.73,6.4,2.66,10.5,1.79,7.98,2.81,16.12,4.21,24.19,4.61,26.57,9.26,53.13,13.85,79.71.53,3.09,1.36,6.54-3.39,7.32Z"/>
  <path class="cls-1" d="M97.52,565.71c-19.91-37.73-39.55-75.57-59.41-113.3-2.7-5.14-6.17-9.88-9.3-14.8l-9.62-3.06c-4.73,2.34-9.46,4.67-14.2,7.02v10.32c2.37-1.17,4.74-2.33,7.11-3.49,8.52-4.19,10.64-3.29,13.88,5.16-7.01,3.45-14,6.9-20.99,10.35v13.22c1.63-.78,3.31-1.59,4.72-2.28,17.78,34.01,35.38,67.67,52.81,101.05-2.18.72-5.73,1.91-8.48,2.83-15.61-29.85-32.11-61.36-49.05-93.74v28.81c12.71,24.33,25.29,48.42,37.81,72.44-2.97,1.53-6.32,3.24-9.01,4.62-9.58-18.32-19.18-36.59-28.8-54.98v26.02c7.2,13.72,14.46,27.42,21.78,41.08,2.95,5.52,8.04,10.65,13.4,14.09,15.07,9.63,30.79,18.29,46.29,27.27,6.87,3.98,10.19,2.33,10.94-5.41,1.61-16.75,2.95-33.54,4.76-50.28.89-8.24-.79-15.63-4.63-22.97h0ZM22.89,468.87c1.87-.45,5.54-1.34,8.19-1.99,16.66,31.84,34.25,65.5,52.09,99.62-1.86.8-5.12,2.21-7.51,3.25-17.31-33.07-34.9-66.7-52.77-100.88ZM87.1,632.37c-4.36-2.53-7.9-4.58-11.44-6.64-.23-.8-.45-1.62-.69-2.42,3.97-1.62,7.94-3.25,13.4-5.5-.5,5.77-.84,9.6-1.27,14.56ZM89.43,605.57c-.14,1.09-2.59,2.12-4.13,2.84-4.95,2.3-10.79,3.53-14.72,6.91-4.69,4.03-7.78,3.49-12.32.42-6.4-4.33-13.21-8.06-19.87-12.05.05-1.07.11-2.13.16-3.19,3.94-1.13,7.91-3.19,11.83-3.13,4.26.07,6.75-.8,8.59-4.52,2.33-4.77,6.53-6.83,11.86-5.82,4.24.8,6.38-.78,8.78-4.15,2.17-3.04,6.02-4.98,9.12-7.43,1.03.62,2.07,1.21,3.12,1.82-.76,9.43-1.37,18.88-2.43,28.29Z"/>
  <path class="cls-1" d="M898.67,971.09c-32.66-31.87-65.25-63.77-98.28-95.26-4.57-4.35-11.05-7.7-17.24-9.35-17.4-4.62-35.1-8.11-52.72-12-7.79-1.7-10.44.87-8.67,8.44,3.82,16.42,7.9,32.79,11.52,49.24,1.78,8.11,5.73,14.63,11.74,20.45,30.95,29.87,61.72,59.93,92.63,89.82,4.2,4.07,9.03,7.53,13.57,11.27h10.12c14.95-14.52,29.91-29.06,44.87-43.59v-9.85c-2.51-3.07-4.72-6.43-7.53-9.18h0ZM797.58,889.48c27.55,26.76,55.08,53.45,83.06,80.6-2.28,2.23-4.92,4.79-7.32,7.12-27.99-27.22-55.47-53.96-82.83-80.6,2.33-2.34,4.96-4.99,7.09-7.12h0ZM863.87,986.43c-1.9,1.8-4.45,4.24-6.38,6.1-27.75-26.98-55.23-53.69-82.45-80.17,1.86-1.34,4.85-3.54,7.17-5.25,25.94,25.2,53.42,51.91,81.67,79.33h0ZM733.66,866.09c4.95,1.11,8.97,1.99,12.98,2.87.47.7.95,1.4,1.42,2.09-3.24,2.74-6.51,5.49-10.98,9.27-1.36-5.64-2.25-9.38-3.43-14.23ZM750.25,920.68c-1.18-.28-2.36-.53-3.54-.79-2.29-9.19-4.73-18.36-6.72-27.61-.22-1.08,1.79-2.8,3.02-3.95,3.97-3.69,9.13-6.61,11.79-11.01,3.17-5.24,6.29-5.66,11.57-4.12,7.47,2.2,15.14,3.69,22.73,5.48.3,1.03.58,2.05.88,3.08-3.4,2.25-6.51,5.41-10.26,6.54-4.07,1.21-6.17,2.79-6.72,6.89-.69,5.23-4.04,8.45-9.42,9.1-4.3.51-5.83,2.66-7.02,6.58-1.1,3.56-4.13,6.54-6.32,9.81ZM839.72,1006.54c-25.99-25.24-53.46-51.95-81.31-79.01,1.52-1.32,4.17-3.65,6.11-5.35,27,26.22,54.44,52.9,82.34,80.01-1.64.99-4.84,2.95-7.14,4.35ZM890.69,992.15c-8.99,8.8-18,17.54-27.04,26.26-6.78,6.54-9.07,6.32-14.84-.72,13.61-13.21,27.14-26.35,40.78-39.6,7.28,5.07,7.64,7.66,1.1,14.06Z"/>
  <g>
    <path class="cls-1" d="M1912.11,132.92c-1.06-7.87-6.11-13.17-12.68-15.05-2.62-.75-5.52-2.67-6.98-4.86-5.75-8.66-13.65-14.01-24.14-14.38-5.46-.2-7.79-1.92-9.95-6.66-10.19-22.28-32.69-33.37-56.63-28.47-23.08,4.73-39.11,24.31-39.18,48.3-.12,37.57-.09,75.12.08,112.68.03,2.86,1.72,5.7,2.63,8.55h26.13c.76-3.37,2.14-6.76,2.15-10.13.16-36.67.05-73.35.14-110.01.03-10.78,5.61-18.13,14.55-19.92,9.84-1.98,17.52,2.41,22.47,12.26,1.99,3.99,2.14,6.81-1.06,10.63-6.49,7.77-7.3,16.87-4.5,26.49.68,2.3.23,5.45-.89,7.62-3.21,6.18-2.64,12.93,2.55,19.23,4.35,5.31,10.45,7.39,16.57,4.87,20.64-8.44,41.09-17.34,61.38-26.53,5.9-2.67,8.2-8.31,7.36-14.62h0ZM1884.85,121.46c-15.92,6.9-31.79,13.79-48.15,20.87-5.37-12.23-1.71-21.81,9.81-27.15,3.5-1.63,7.03-3.19,10.61-4.66,11.63-4.75,21.51-1.08,27.73,10.94h0ZM1806.7,82.97c-14.05,3-23.4,13.92-23.46,28.13-.16,34.65-.05,69.28-.07,103.91v7.53h-9.59c-.24-1.45-.64-2.7-.64-3.96-.03-35.74-.31-71.5.08-107.24.28-24.82,20.44-41.81,45.26-38.4,17.14,2.36,27.44,12.93,33.15,29-3.28,1.4-5.94,2.53-9,3.83-1.29-2.55-2.33-4.71-3.44-6.86-6.3-12.21-19.46-18.71-32.29-15.93h0ZM1897.92,139.86c-18.76,8.05-37.5,16.16-56.24,24.26-4.09,1.78-6.29-.04-8.12-3.52-1.96-3.75-.5-5.77,2.99-7.28,18.97-8.14,37.91-16.37,56.92-24.44,4.65-1.99,8.31.83,8.2,5.97.92.91,1.87,1.82,2.79,2.73-2.18.75-4.43,1.37-6.55,2.29h0Z"/>
    <path class="cls-1" d="M1938.51,186.33v5.33c-2.48.58-5.81,2.42-7.24,1.5-2.75-1.79-4.69-5-6.34-7.95-.38-.68,2.09-3.99,2.6-3.85,3.02.82,5.88,2.26,8.77,3.56.79.37,1.46.93,2.21,1.41h0Z"/>
    <path class="cls-1" d="M1863.71,189.58c-3.18,3.19-5,6.62-7.11,6.78-5.15.41-6.29-4.08-5.62-7.82.42-2.36,3.2-4.31,4.92-6.44,2.25,2.15,4.49,4.29,7.82,7.47h0Z"/>
    <path class="cls-1" d="M1916.88,168.66c-3.88,2.63-6.98,5.45-7.55,5.02-3.16-2.33-5.81-5.36-8.2-8.47-.22-.26,3.7-4.49,4.3-4.17,3.48,1.7,6.55,4.2,11.45,7.62Z"/>
    <path class="cls-1" d="M1890.24,179.69c-3.5,2.63-5.3,5.12-7.25,5.23-5.46.29-6.34-4.54-6.86-8.22-.23-1.54,2.87-3.52,4.46-5.28,2.76,2.37,5.52,4.73,9.65,8.26h0Z"/>
    <path class="cls-1" d="M1914.88,200.09c-3.69,2.37-6.97,5.12-7.45,4.7-2.87-2.37-5.38-5.32-7.22-8.52-.33-.57,4.2-4.82,4.61-4.56,3.13,1.99,5.81,4.66,10.07,8.38h0Z"/>
    <path class="cls-1" d="M1888.91,210.44c-3.5,2.75-5.29,5.33-7.2,5.44-5.68.3-6.32-4.53-6.34-8.35-.03-1.8,2.78-3.63,4.3-5.46,2.66,2.41,5.31,4.82,9.24,8.38h0Z"/>
    <path class="cls-1" d="M1863.11,220.28c-3.58,3.28-5.64,6.76-7.83,6.86-4.8.22-5.65-4.16-4.89-7.68.54-2.45,2.95-4.5,4.53-6.74,2.25,2.07,4.49,4.13,8.2,7.56h0Z"/>
  </g>
  <path class="cls-1" d="M1616.91,568.71c-7.21-.74-14.57-.47-21.85-.17-7.14.33-11.29,4.71-13.17,11.35-2.26,7.99-4.38,16.03-6.76,24.82-19.56,0-39.04-.04-58.55.01-24.98.09-49.98.45-74.97.28-7.18-.07-13.2,1.42-17.71,7.26v9.38c4.57,18.59,9.19,37.21,13.73,55.82,2.94,12,6.59,15,18.95,15.01,33.84.03,67.71.01,101.55.01,2.07,0,4.55-.71,6.15.17,2.99,1.66,7.17,3.85,7.79,6.53,1.11,4.71-3.08,6.49-7.48,6.61-1.8.07-3.63.04-5.45.04-35.15,0-70.29-.03-105.45,0-10.98,0-11.61.96-8.38,11.13.42,1.33.03,3.03-.28,4.49-1.9,8.82.88,16.05,7.98,21.28,6.9,5.08,14.47,5.48,22,1.17,7.83-4.5,10.87-11.52,10.1-20.37-.15-1.75-.16-3.53-.27-5.74h34.52c-1.17,9.11-1.54,18.37,6.86,23.98,4.04,2.7,9.51,4.65,14.32,4.6,13.19-.14,19.49-10.42,18.42-28.31,18.42-2.67,24.3-6.7,25.41-17.33.95-9.06-4.28-15.58-17.17-20.85,3.35-12.67,6.68-25.41,10.12-38.15,4.93-18.32,10.16-36.56,14.79-54.95,1.34-5.37,3.73-7.33,9.12-6.93,5.18.42,10.52.68,15.57-.2,2.6-.45,4.74-3.53,7.1-5.41-2.33-1.94-4.5-5.27-6.98-5.53h0ZM1464.73,734.6c-3.46-.54-6.44-4.15-8.5-5.58.38-8.31,3.86-12.14,8.92-11.1,3.28.67,7.49,4.99,8.14,8.3,1.02,5.18-3.25,9.24-8.56,8.39ZM1539.25,734.6c-5.29.84-8.82-2.91-8.84-8.44,0-5.19,3.36-8.41,8.33-8.52,5.35-.09,8.63,3.04,9.01,11.39-2.06,1.44-5.04,5.03-8.51,5.57h0ZM1441.64,642.73c-1.95-8.48-3.85-16.7-5.87-25.47h22.77c1.06,8.52,2.09,16.8,3.16,25.47h-20.06ZM1447.45,668.34c-.95-4.25-1.84-8.53-2.82-13.02h19c1.04,8.69,2.01,16.79,2.97,24.85-10.69,1.37-17.07-2.57-19.15-11.83ZM1470.44,617.16h24.91v25.65h-21.47c-1.15-8.52-2.26-16.86-3.44-25.65ZM1495.55,680.53h-16.75c-1.12-8.63-2.21-16.91-3.33-25.57h20.08v25.57ZM1525.13,680.52h-16.48v-25.55h20.03c-1.26,9.06-2.39,17.18-3.55,25.55ZM1530.16,642.65h-21.75v-25.52h25.3c-1.25,8.98-2.4,17.17-3.55,25.52ZM1555.62,676.4c-.64,1.88-3.23,4.03-5.19,4.35-4.15.66-8.5.2-13.01.2.26-3.19.38-5.25.58-7.31,1.3-13.42,9.14-19.6,23.51-18.53-1.99,7.45-3.59,14.49-5.9,21.29h0ZM1544.2,642.82c-.24-.01-.46-.26-1.92-1.15,1.15-8.19,2.3-16.5,3.48-24.86h24.98c-.85,23.37-5.62,27.98-26.54,26.01Z"/>
  <path class="cls-1" d="M2092.74,1238.35c-23.77.16-47.55-.17-71.32-.25-18.55-.05-37.09-.01-55.7-.01-2.28-8.14-4.28-15.58-6.44-22.98-1.79-6.14-5.73-10.19-12.54-10.5-6.93-.29-13.92-.53-20.78.16-2.37.24-4.43,3.32-6.64,5.11,2.24,1.75,4.27,4.6,6.75,5.02,4.81.82,9.89.57,14.81.18,5.14-.38,7.4,1.44,8.69,6.4,4.39,17.03,9.36,33.91,14.07,50.86,3.27,11.79,6.44,23.58,9.62,35.3-12.25,4.89-17.24,10.92-16.33,19.29,1.06,9.84,6.65,13.56,24.18,16.04-1.02,16.57,4.97,26.07,17.52,26.2,4.58.05,9.78-1.75,13.63-4.25,7.98-5.19,7.63-13.76,6.52-22.19h32.84c-.09,2.04-.11,3.69-.26,5.31-.73,8.19,2.15,14.68,9.61,18.86,7.16,3.99,14.37,3.62,20.92-1.08,6.76-4.85,9.41-11.54,7.6-19.7-.3-1.36-.68-2.92-.27-4.16,3.08-9.4,2.47-10.28-7.97-10.3h-100.33c-1.73,0-3.47.03-5.19-.03-4.19-.12-8.17-1.76-7.11-6.12.6-2.49,4.57-4.5,7.41-6.04,1.52-.82,3.88-.16,5.85-.16,32.2,0,64.41,0,96.61-.01,11.76-.01,15.23-2.79,18.02-13.89,4.32-17.22,8.71-34.45,13.06-51.66v-8.68c-4.3-5.4-10.02-6.77-16.86-6.72h0ZM2062.6,1350.54c.62-3.06,4.63-7.06,7.75-7.68,4.81-.96,8.12,2.58,8.48,10.27-1.96,1.33-4.8,4.67-8.09,5.18-5.05.79-9.11-2.98-8.14-7.77ZM2000.32,1342.61c4.73.09,7.94,3.08,7.93,7.87-.01,5.12-3.39,8.6-8.42,7.82-3.29-.5-6.14-3.83-8.09-5.16.35-7.73,3.48-10.63,8.58-10.53h0ZM1969.89,1249.28h23.77c1.11,7.74,2.21,15.43,3.31,23.02-1.4.82-1.6,1.04-1.83,1.05-19.89,1.83-24.43-2.44-25.25-24.07h0ZM1989.2,1308.45c-1.87-.29-4.32-2.28-4.93-4.02-2.2-6.29-3.71-12.81-5.61-19.7,13.68-.99,21.14,4.72,22.37,17.15.19,1.9.31,3.81.56,6.76-4.3,0-8.43.43-12.39-.18ZM2028.96,1308.25h-15.68c-1.11-7.74-2.18-15.26-3.39-23.65h19.07v23.65ZM2029.19,1273.2h-20.69c-1.1-7.73-2.2-15.3-3.39-23.61h24.08v23.61ZM2057.37,1308.27h-15.94v-23.68h19.11c-1.07,8.02-2.1,15.68-3.17,23.68ZM2062.04,1273.34h-20.42v-23.74h23.7c-1.12,8.15-2.18,15.85-3.28,23.74ZM2087.18,1296.98c-1.96,8.56-8.03,12.21-18.21,10.94.92-7.47,1.83-14.96,2.82-23h18.08c-.92,4.16-1.78,8.12-2.68,12.06ZM2092.72,1273.28h-19.09c1.03-8.02,2.01-15.68,3.01-23.57h21.67c-1.92,8.11-3.73,15.72-5.58,23.57Z"/>
  <g>
    <path class="cls-1" d="M1470.18,1191.71c21.74-14.2,29.88-33.42,25.1-57.68-4.58-23.2-18.32-31.55-42.08-25.69-.53-2.83-.89-5.68-1.59-8.45-2.37-9.53-6.14-18.95-.56-28.73.56-.96-1.5-3.33-2.86-6.04-5.95,8.05-7.45,15.26-5.87,23.16,1.54,7.66,3.13,15.29,4.85,23.65-8.28-4.12-15.18-7.56-22.89-11.42,3.18-10.78,1.8-21.24-6.26-30.48-6.87-7.86-10.18-16.78-7.39-27.28,1.31-4.9-1.14-6.9-6.23-7.27-16.32-1.19-32.63-2.52-48.9-4.16-5.81-.61-8.65,1.13-8.28,6.83.66,9.88-3.39,17.58-10.95,23.93-2.24,1.88-4.51,3.99-5.87,6.48-2.45,4.46-5.48,9.14-6.07,13.98-2.15,17.68-3.33,35.46-5.07,53.2-.26,2.48-.94,5.32-2.45,7.18-7.62,9.27-7.01,15.95,2.63,23.16,1.64,1.22,3.28,2.45,5.16,3.87-6.33,3.67-12.33,7.86-10.11,14.91,1.37,4.33,5.94,9.07,10.26,10.77,3.82,1.5,9.78.01,13.95-1.9,6.14-2.86,11.53-7.26,17.52-11.17,2.3,10.31,10.15,15.55,19.38,19.24,27.57,11,56.5,15.91,86.06,17.84,3.93.25,7.96-.04,11.86-.59,11.56-1.67,14.27-8.34,6.88-17-2.98-3.48-6.45-6.56-10.23-10.34h0ZM1443.13,1118.75c.85,1.32.04,3.63.03,5.08-4.62-1-7.64-1.65-11.98-2.61,6.38,12.69,18.72,13.8,26.51,3.65-2.07-1.12-4.08-2.23-7.62-4.17,2.3-2.32,4-5.27,6.55-6.41,10.9-4.86,20.26-2.23,26.71,6.9,13.71,19.34,6.74,51.11-13.82,63.3-3.44,2.05-5.96,2.4-9.97.12-20.03-11.36-40.44-22.1-60.63-33.21-1.56-.86-3.47-2.9-3.47-4.39-.05-11.36,2.81-21.99,10.49-30.85,9.85-11.35,29.07-9.99,37.21,2.59h0ZM1419.29,1086.71c-.41,4.45-.54,8.49-1.25,12.46-.24,1.34-1.6,3.11-2.87,3.58-19.08,7.1-23.51,23.15-26.3,40.24-.23,1.4-.15,2.86-.24,5.06-2.13-.04-4.09-.11-6.17-.14l5.73-63.83,31.1,2.63h0ZM1405.55,1062.69c3.65,5.53,6.99,10.65,10.94,16.66l-24.39-2.07c4.72-5.11,8.77-9.49,13.46-14.59ZM1354.18,1037.46l40.25,3.41c7.43.63,10.13,4.89,8.1,12.77l-49.44-4.2,1.08-11.98h0ZM1348.3,1058.44c1.49-1.42,4.27-2.4,6.36-2.26,14.32.97,28.61,2.3,42.99,3.53-4.78,11.94-13.65,17.5-25.94,16.46l-36.97-3.13c5.27-5.75,9.17-10.42,13.57-14.59ZM1331.39,1079.27l49.82,4.21-1.59,17.66-49.8-4.21,1.57-17.66ZM1351.39,1177.5c-5.43,4.46-11.51,8.31-17.7,11.73-4.96,2.74-10.16,1.55-12.62-3.62-2.52-5.32,2.3-7.57,6.17-9.8.43-.24.96-.32,1.38-.57,2.97-1.74,5.91-3.48,8.88-5.23-2.95-1.94-5.9-3.91-8.89-5.81-1.44-.91-3.09-1.53-4.49-2.5-3.71-2.61-8.05-5.89-5.23-10.5,1.82-2.96,6.56-4.24,9.99-6.27.38.46.76.93,1.11,1.41,3.56,1,7.07,2.23,10.69,2.95,1.65.32,3.52-.37,5.3-.59-.2-1.54-.15-3.21-.72-4.65-1.14-2.9-3.54-5.62-3.71-8.52-.18-2.84,1.18-7.82,2.87-8.27,2.93-.78,7.78.17,9.81,2.25,10.86,11.09,9.19,38.11-2.85,47.97ZM1353.85,1121.86c-3.85-1.83-10.31-.93-14.51,1-5.05,2.33-5.77,7.94-4.36,13.31.37,1.37.57,2.79.94,4.61l-9.99-.84,3.24-36.05,50.2,4.25c-1.15,12.93-2.01,25.56-3.69,38.1-.3,2.28-4.02,4.12-7.01,6.98-1.84-7.37-2.59-13.83-5.14-19.53-2.02-4.57-5.41-9.81-9.68-11.83h0ZM1425.17,1209.25c1.08-3.65,1.92-6.53,2.93-9.94-1.56-.74-3.18-1.5-5.14-2.41-1.65,3.59-3.14,6.86-4.91,10.69-16.59-3.38-33.22-6.76-47.92-15.67-6.44-3.9-8.44-9.6-6.52-16.82,5.88-22.02,18.16-26.74,39.36-14.62-2.67,6.82-5.11,13.83-8.13,20.6-1.9,4.21-.58,5.72,4.21,6.14,3.35-8.1,6.71-16.24,10.56-25.52,16.8,9.81,32.85,19.17,49.26,28.76-1.45,4.12-2.6,7.44-3.75,10.76,3.38,2.1,6.53.16,9.46-5.82,4.97,4.89,9.57,9.4,15.77,15.5-20.02,5.27-37.11.5-55.18-1.65Z"/>
    <path class="cls-1" d="M1466.51,1078.19c-6.75-.65-14.54,3.54-14.83,7.98-.27,4.11,6.52,9.51,12.74,10.11,6.44.65,14.68-3.81,14.92-8.03.24-4.12-6.59-9.45-12.83-10.06h0ZM1457.56,1088.08c6.11-5.18,10.12-4.94,13.76,1.17l-13.76-1.17Z"/>
  </g>
  <g>
    <path class="cls-1" d="M1213.42,857.5c-.09,1.49-2.6,2.82-4.01,4.21-1.26-1.51-3.65-3.06-3.6-4.54.16-6.18,1.06-12.34,1.67-18.5l5.95.25c.07,6.2.39,12.4,0,18.57h0Z"/>
    <path class="cls-1" d="M1301.47,932.26l-.26,5.77c-6.38.08-12.78.4-19.12,0-1.52-.09-2.9-2.53-4.32-3.88,1.54-1.24,3.14-3.54,4.66-3.5,6.36.14,12.71,1.01,19.05,1.62h-.01Z"/>
    <path class="cls-1" d="M1247.57,895.2c-20.42-22.5-56.23-23.87-79.08-3-22.85,20.82-23.69,55.35-1.23,76.65,9.22,8.74,13.39,18.16,12.39,30.81-1.68,21.15.45,22.86,22.46,23.8,22.7.96,23.88-.11,24.87-22.1.01-.25.04-.49.03-.72-.51-12.06,4.87-20.87,14.51-28.39,24.58-19.13,27.05-53.91,6.06-77.05h0ZM1209.29,1016.23c-3.9-.53-7.9-.38-11.84-.57-10.42-.45-11.11-1.21-10.37-11.64.09-1.15.31-2.3.51-3.86l31.26,1.32c0,2.28-.11,4.16.05,6.02.57,6.91-2.47,9.72-9.62,8.73ZM1237.47,965.52c-9.08,7.33-16.03,15.56-18.19,27.56l-31.39-1.33c-.47-12.38-7.37-20.88-15.98-29.05-18.63-17.66-17.22-47.35,2.34-65.1,19.52-17.7,49.59-16.68,67.14,2.26,18.01,19.44,16.45,49.18-3.93,65.66h0Z"/>
    <path class="cls-1" d="M1134.87,928.19c-1.57,1.21-3,3.07-4.78,3.48-2.3.55-4.89-.05-7.36-.16-.26.49-.5.97-.77,1.47-3.5-1.86-10.15-4.1-9.97-5.5.89-6.91,7.14-3.23,11.26-3.74,2.4-.29,5.1-.29,7.33.49,1.69.59,2.89,2.59,4.28,3.98h.01Z"/>
    <path class="cls-1" d="M1273.54,996.98c-3.89,1.51-6.61,3.21-7.2,2.69-4.63-4.17-8.94-8.7-13.01-13.42-.26-.3,2.4-2.99,3.7-4.54,5.01,4.64,10.04,9.28,16.51,15.28h0Z"/>
    <path class="cls-1" d="M1160.12,876.06c-.33,1.05-.66,2.11-.99,3.15-2.3.28-5.61,1.62-6.75.62-3.98-3.53-7.52-7.66-10.53-12.01-.65-.93,1.6-3.77,2.51-5.73,5.26,4.65,10.5,9.31,15.76,13.96h0Z"/>
    <path class="cls-1" d="M1155.37,982.06c-5.57,4.23-10.98,8.41-16.55,12.35-.39.28-2.79-1.15-3.21-2.17-.41-1.03.09-2.98.94-3.79,3.63-3.57,7.41-7.02,11.42-10.17,1.02-.79,3.18-.63,4.63-.25.83.22,1.29,1.79,2.76,4.04h0Z"/>
    <path class="cls-1" d="M1276,873.08c-4.38,4.4-9.16,8.4-14.07,12.25-.22.16-2.79-2.54-4.26-3.91,4.72-4.65,9.42-9.3,15.57-15.35,1.46,3.57,3.33,6.44,2.76,7.02h-.01Z"/>
    <path class="cls-1" d="M1241.89,932.23c-.51.58-1.94,2.2-3.37,3.81-1.46-1.74-4.01-3.34-4.24-5.23-1.84-15.14-10.27-23.9-25.65-26.78-1.76-.33-3.1-2.77-4.65-4.21,1.92-1.05,3.85-3.04,5.76-3.03,16.6.13,32.93,17.4,32.15,35.44h.01Z"/>
  </g>
  <g>
    <path class="cls-1" d="M2004.78,504c-7.83-5.58-12.7-12.33-17.06-20.12-7.85-14.01-19.99-18.21-35.67-12.87-3.89,1.33-8.17,2.4-12.22,2.23-14.53-.59-26.07,2.99-29.95,18.38-3.58,0-6.55.11-9.51-.01-21.25-.78-36.13,7.78-43.75,27.57-.68,1.79-3.63,2.65-5.08,4.31-2.87,3.27-7.18,6.6-7.59,10.26-.38,3.31,3.59,7.12,5.77,10.64,1.37,2.2,3.9,4.13,4.28,6.45,2.6,15.89,4.74,31.87,7.11,47.8,1.88,12.8,10.3,20.04,23.76,20.07,35.89.09,71.79.11,107.69,0,13.02-.05,21.39-7.27,23.27-19.74,2.45-16.17,4.68-32.37,7.18-48.52.28-1.87,1.4-3.85,2.7-5.27,2.4-2.63,5.22-4.89,7.86-7.3v-7.22c-9.5-9.01-18.19-19.11-28.78-26.67h0ZM2012.22,521.63c-17.12,3.99-18.95,6.33-18.96,22.97,0,4.81.49,9.68-.24,14.38-.37,2.32-2.68,5.61-4.69,6.06-1.76.41-4.42-2.44-6.49-4.07-1.53-1.2-2.78-2.77-4.15-4.16-1.15,1.86-2.79,3.58-3.32,5.6-.58,2.26.56,5.07-.34,7.1-1.06,2.42-3.5,4.28-5.34,6.37-1.92-2.08-5.35-4.04-5.52-6.25-.66-8.84-.31-17.75-.34-26.64-.04-15.84-4.42-20.13-20.57-20.16-4.89-.01-9.78,0-14.91,0,4.23-11.61,20.55-22.32,36.54-23.65,20.11-1.66,35.93,6,48.33,22.47h0ZM1932.21,480.61c8.47-1.05,16.97-2.08,25.34-3.69,13.48-2.59,19.39.68,25.86,15.14h-65.09c1.64-8.43,7.09-10.6,13.89-11.46h0ZM1890.27,499.39c15.87-1.01,31.87-.24,46.97-.24-6.18,6.95-12.17,13.85-18.39,20.56-1.31,1.41-3.48,2.92-5.27,2.95-16.25.24-32.48.13-48.79.13,1.14-11.68,12.02-22.53,25.48-23.4h0ZM1854.58,538.15c-1.49-.58-3.35-2.53-3.36-3.9-.01-1.29,1.94-2.95,3.42-3.81,1.14-.66,2.89-.38,4.36-.4h85.91c5.29,0,9.95.74,10.16,8.66h-33.92c-20,0-40.01.01-60-.01-2.21,0-4.61.21-6.57-.54h0ZM2010.8,582.8c-.73,5.23-1.49,10.47-2.4,15.67-1.45,8.26-6.59,12.96-15.11,13-36.62.12-73.22.12-109.84-.01-7.54-.03-13.38-4.33-14.49-11.11-2.87-17.72-5.2-35.54-7.85-53.91h93.48c.92,3.75,1.99,6.68-3.25,9.14-6.97,3.25-4.15,10.27-3.63,15.55.22,2.32,4.42,4.85,7.33,6.2,4.77,2.23,9.31,3.92,8.42,10.42-.39,2.82-.87,6.14.26,8.53,1.23,2.59,4.2,6,6.55,6.1,2.44.09,5.75-2.9,7.33-5.35,1.26-1.95,1.27-5.4.46-7.72-2.33-6.65.26-11.72,4.51-16.61,15,.28,15.57-.5,18.8-26.24h14.39c-1.67,12.29-3.28,24.32-4.96,36.34h0ZM2021.33,538.45c-.61.49-1.9.24-2.87.24-5.64.01-11.26.01-16.89.01-.57-.86-1.14-1.71-1.71-2.57,2.47-1.96,4.66-5.04,7.43-5.65,4.45-.96,9.31-.63,13.92-.16,1.69.17,3.16,2.29,4.73,3.53-1.52,1.55-2.91,3.24-4.61,4.6h0Z"/>
    <path class="cls-1" d="M1921.52,463.06c-1.27,1.84-3.96,2.78-6.02,4.1-.31-2.17-.66-4.33-.91-6.52-.28-2.44.45-5.54-.84-7.23-5.33-6.95-4.43-13.22.94-19.49h4.46c-1.56,7.9-.07,15.21,3.69,22.39.88,1.67-.07,4.96-1.31,6.76Z"/>
    <path class="cls-1" d="M1958.15,458.1c-1.14,1.07-3.39,1.5-5.04,1.3-.6-.07-1.07-2.7-1.29-4.2-.3-2.15.45-4.78-.58-6.43-3.55-5.7-2.44-10.42,2.09-14.85h2.97c1.41,6.36,3.04,12.68,4.09,19.09.26,1.58-.95,3.87-2.24,5.08h0Z"/>
    <path class="cls-1" d="M1883.91,470.96c-.91,1.28-2.51,2.09-5.12,4.19-.81-2.94-2.4-5.5-1.67-6.57,2.93-4.32,1.38-7.41-1.31-11.06-3.74-5.07-3.32-10.48.81-15.21.95-1.08,3.35-.93,5.08-1.36.34,1.66,1.54,3.9.87,4.87-2.85,4.04-1.31,7.03,1.25,10.4,3.6,4.77,3.54,9.88.09,14.74h0Z"/>
    <path class="cls-1" d="M2003.22,471.65c-.28.91-3.23,1.04-4.95,1.53-.42-1.63-1.76-3.91-1.11-4.81,3.18-4.35,1.03-7.43-1.46-11.01-3.58-5.15-3.1-10.52,1.04-15.25.87-.99,3.05-1.47,4.45-1.24,1.03.17,1.78,1.91,2.87,3.21-6.6,6.03.12,10.34,1.23,15.51.81,3.75-.85,8.14-2.07,12.05h0Z"/>
    <path class="cls-1" d="M1899.33,566.19c-2.25,3.96-3.5,8.02-6.27,10.28-1.41,1.15-8-.62-8.12-1.57-.76-5.89-.72-11.96.09-17.83.12-.91,6.79-2.58,8.17-1.4,2.74,2.33,3.9,6.41,6.13,10.51Z"/>
    <path class="cls-1" d="M1915.5,591.49c-2.41,4.15-3.69,8.14-6.45,10.34-1.4,1.12-7.87-.65-8.01-1.63-.81-5.83-.84-11.86-.07-17.7.14-1.03,6.76-2.86,7.98-1.78,2.83,2.54,4.19,6.62,6.55,10.77h0Z"/>
    <path class="cls-1" d="M1945.78,591.46c0,1.67.73,4.02-.14,4.89-2.4,2.45-5.65,6.25-8.23,6.02-7.47-.7-6.25-7.1-6.41-12.3-.15-4.95.73-9.96,6.69-9.85,2.74.04,5.68,3.81,7.97,6.36.85.93.15,3.21.15,4.89h-.04Z"/>
    <path class="cls-1" d="M1929.53,565.89c0,1.92.81,4.56-.16,5.62-2.18,2.36-5.41,5.72-7.94,5.52-7.7-.61-6.45-7.05-6.59-12.25-.12-4.95.73-9.97,6.94-9.72,2.68.09,5.5,3.49,7.67,5.9.87.95.15,3.24.15,4.92h-.07Z"/>
  </g>
  <g>
    <path class="cls-1" d="M149.49,843.74c-7.83-5.58-12.7-12.33-17.06-20.12-7.85-14.01-19.99-18.21-35.67-12.87-3.89,1.33-8.17,2.4-12.22,2.23-14.53-.59-26.07,2.99-29.95,18.38-3.58,0-6.55.11-9.51-.01-18.25-.67-31.81,5.56-40.09,19.86v18.58h84.63c5.29,0,9.95.74,10.16,8.66h-33.92c-20,0-40.01.01-60-.01-.28,0-.58,0-.88.01v54.24c.28,1.9.56,3.81.84,5.7,1.88,12.8,10.3,20.04,23.76,20.07,35.89.09,71.79.11,107.69,0,13.02-.05,21.39-7.27,23.27-19.74,2.45-16.17,4.68-32.37,7.18-48.52.28-1.87,1.4-3.85,2.7-5.27,2.4-2.63,5.22-4.89,7.86-7.3v-7.22c-9.5-9.01-18.19-19.11-28.78-26.67h0ZM76.92,820.36c8.47-1.05,16.97-2.08,25.34-3.69,13.48-2.59,19.39.68,25.86,15.14H63.03c1.64-8.43,7.09-10.6,13.89-11.46ZM58.29,862.4c-16.25.24-32.48.13-48.79.13,1.14-11.68,12.02-22.53,25.48-23.4,15.87-1.01,31.87-.24,46.97-.24-6.18,6.95-12.17,13.85-18.39,20.56-1.31,1.41-3.48,2.92-5.27,2.95h0ZM86.98,862.56c-4.89-.01-9.78,0-14.91,0,4.23-11.61,20.55-22.32,36.54-23.65,20.11-1.66,35.93,6,48.33,22.47-17.12,3.99-18.95,6.33-18.96,22.97,0,4.81.49,9.68-.24,14.38-.37,2.32-2.68,5.61-4.69,6.06-1.76.41-4.42-2.44-6.49-4.07-1.53-1.2-2.78-2.77-4.15-4.16-1.15,1.86-2.79,3.58-3.32,5.6-.58,2.26.56,5.07-.34,7.1-1.06,2.42-3.5,4.28-5.34,6.37-1.92-2.08-5.35-4.04-5.52-6.25-.66-8.84-.31-17.75-.34-26.64-.04-15.84-4.42-20.13-20.57-20.16ZM155.51,922.54c-.73,5.23-1.49,10.47-2.4,15.67-1.45,8.26-6.59,12.96-15.11,13-36.62.12-73.22.12-109.84-.01-7.53-.03-13.38-4.33-14.49-11.11-2.87-17.72-5.2-35.54-7.85-53.91h93.48c.92,3.75,1.99,6.68-3.25,9.14-6.97,3.25-4.15,10.27-3.63,15.55.22,2.32,4.42,4.85,7.33,6.2,4.77,2.23,9.31,3.92,8.42,10.42-.39,2.82-.87,6.14.26,8.53,1.23,2.59,4.2,6,6.55,6.1,2.44.09,5.75-2.9,7.33-5.35,1.26-1.95,1.27-5.4.46-7.72-2.33-6.65.26-11.72,4.51-16.61,15,.28,15.57-.5,18.8-26.24h14.39c-1.67,12.29-3.28,24.32-4.96,36.34ZM166.04,878.19c-.61.49-1.9.24-2.87.24-5.64.01-11.26.01-16.89.01-.57-.86-1.14-1.71-1.71-2.57,2.47-1.96,4.66-5.04,7.43-5.65,4.45-.96,9.31-.63,13.92-.16,1.69.17,3.16,2.29,4.73,3.53-1.52,1.55-2.91,3.24-4.61,4.6Z"/>
    <path class="cls-1" d="M66.23,802.8c-1.27,1.84-3.96,2.78-6.02,4.1-.31-2.17-.66-4.33-.91-6.52-.28-2.44.45-5.54-.84-7.23-5.33-6.95-4.43-13.22.94-19.49h4.46c-1.56,7.9-.07,15.21,3.69,22.39.88,1.67-.07,4.96-1.31,6.76Z"/>
    <path class="cls-1" d="M102.86,797.84c-1.14,1.07-3.39,1.5-5.04,1.3-.6-.07-1.07-2.7-1.29-4.2-.3-2.15.45-4.78-.58-6.43-3.55-5.7-2.44-10.42,2.09-14.85h2.97c1.41,6.36,3.04,12.68,4.09,19.09.26,1.58-.95,3.87-2.24,5.08h0Z"/>
    <path class="cls-1" d="M28.62,810.7c-.91,1.28-2.51,2.09-5.12,4.19-.81-2.94-2.4-5.5-1.67-6.57,2.93-4.32,1.38-7.41-1.31-11.06-3.74-5.07-3.32-10.48.81-15.21.95-1.08,3.35-.93,5.08-1.36.34,1.66,1.54,3.9.87,4.87-2.85,4.04-1.31,7.03,1.25,10.4,3.6,4.77,3.54,9.88.09,14.74Z"/>
    <path class="cls-1" d="M147.94,811.39c-.28.91-3.23,1.04-4.95,1.53-.42-1.63-1.76-3.91-1.11-4.81,3.18-4.35,1.03-7.43-1.46-11.01-3.58-5.15-3.1-10.52,1.04-15.25.87-.99,3.05-1.47,4.45-1.24,1.03.17,1.78,1.91,2.87,3.21-6.6,6.03.12,10.34,1.23,15.51.81,3.75-.85,8.14-2.07,12.05Z"/>
    <path class="cls-1" d="M44.04,905.94c-2.25,3.96-3.5,8.02-6.27,10.28-1.41,1.15-8-.62-8.12-1.57-.76-5.89-.72-11.96.09-17.83.12-.91,6.79-2.58,8.17-1.4,2.74,2.33,3.9,6.41,6.13,10.51Z"/>
    <path class="cls-1" d="M60.21,931.23c-2.41,4.15-3.69,8.14-6.45,10.34-1.4,1.12-7.87-.65-8.01-1.63-.81-5.83-.84-11.86-.07-17.7.14-1.03,6.76-2.86,7.98-1.78,2.83,2.54,4.19,6.62,6.55,10.77Z"/>
    <path class="cls-1" d="M90.49,931.21c0,1.67.73,4.02-.14,4.89-2.4,2.45-5.65,6.25-8.23,6.02-7.47-.7-6.25-7.1-6.41-12.3-.15-4.95.73-9.96,6.69-9.85,2.74.04,5.68,3.81,7.97,6.36.85.93.15,3.21.15,4.89h-.04Z"/>
    <path class="cls-1" d="M74.24,905.63c0,1.92.81,4.56-.16,5.62-2.18,2.36-5.41,5.72-7.94,5.52-7.7-.61-6.45-7.04-6.59-12.25-.12-4.95.73-9.97,6.94-9.72,2.68.09,5.5,3.49,7.67,5.9.87.95.15,3.24.15,4.92h-.07Z"/>
  </g>
  <g>
    <path class="cls-1" d="M1531,292.32l-.15.21s.28-.11.31-.11l-.16-.11Z"/>
    <path class="cls-1" d="M1390.83,191.23c-.68.58-1.38,1.16-2.07,1.75.83,2.23,1.46,4.54,2.49,6.69,4.3,9.13,8.29,18.4,13.2,27.19,3.16,5.64,2.29,9.96-.77,15.25-7.98,13.76-15.21,27.93-23.01,41.8-2.93,5.21-1.9,7.24,4.26,7.27,10.07.04,20.22,1.24,30.18.32,10.57-.99,15.29,3.23,19.11,12.35,7.48,17.95,8.05,17.71,27.09,11.5,9.32-3.06,18.69-6,27.94-9.28-.05.12-.11.24-.18.36,13.86-4.73,27.8-9.36,41.78-13.88.01,0,.28-.11.31-.11l-140.33-101.2h0ZM1400.99,204.73l88.47,63.79c-.19.32-.35.62-.53.92-16.98-8.34-33.98-16.67-50.96-25.01-1.84-.9-3.59-2.09-5.54-2.63-18.55-5.14-25.75-19.53-31.44-37.07h0ZM1412.32,238.15c23.61,11.61,46.86,23.06,70.13,34.5-.19.45-.38.88-.56,1.33-19.23-6.14-38.66-11.75-57.61-18.62-8.46-3.07-13.97-1.54-19.15,4.96-2.14,2.69-4.91,4.89-8.47,6.51,5.07-9.31,10.15-18.59,15.65-28.68ZM1388.55,285.55c8.92-9.03,16.41-16.62,24.83-25.15,4.08,8.63,7.78,16.46,12.21,25.82-12.31-.22-23.57-.43-37.04-.67ZM1508.08,294.46c-.8.36-3.08,1.37-6.87,2.69-3.1,1.08-7.28,2.38-12.37,3.59-.28-.01-.57,0-.84.05-3.27.61-6.4,1.96-9.57,3-10.92,3.56-21.85,7.12-33.08,10.78-8.58-18.26-16.78-35.73-25.55-54.37,32.61,10.38,63.84,20.32,95.64,30.46-1.86,1.09-4.34,2.44-7.36,3.79h0Z"/>
  </g>
  <g>
    <path class="cls-1" d="M403.3,50.13s.07.28.07.29l.09-.22s-.16-.07-.16-.07Z"/>
    <path class="cls-1" d="M403.46,50.2l-.16-.07s.07.28.07.29c3.17,12.97,6.25,25.94,9.2,38.93.05-.12.12-.22.19-.32,1.87,8.72,4.07,17.36,6.15,26.02,4.28,17.68,4.36,18.24,21.93,14.21,8.93-2.05,14.46-.76,18.77,7.72,4.04,7.99,9.84,14.99,14.69,22.54,2.97,4.62,5.04,4.31,7.7-.71,7.06-13.34,14.64-26.42,21.52-39.83,2.66-5.16,5.6-8.14,11.51-8.81,9.19-1.04,18.34-3.03,27.48-4.7,2.17-.4,4.28-1.16,6.41-1.74.12-.83.24-1.67.37-2.5,0,0-145.82-51.03-145.82-51.03ZM427.15,126.65c-2.53-10.43-4.99-20.57-7.45-30.71-.7-2.95-1.15-6.03-2.24-8.82-.09-.24-.22-.45-.37-.66-1.5-4.49-2.48-8.34-3.12-11.26-.79-3.56-1.1-5.81-1.21-6.6-.39-3.02-.53-5.61-.57-7.58,23.12,18.46,45.82,36.61,69.51,55.56-18.72,3.45-36.24,6.69-54.56,10.07ZM476.94,153.75c-6.64-10.01-12.2-18.37-18.25-27.51,9.41-1.71,17.28-3.15,25.94-4.71-2.6,10.93-4.92,20.65-7.68,32.22h0ZM487.63,137.56c-.46-3.56-.07-6.82,1-9.88,2.57-7.4,1.14-12.38-5.3-17.09-14.43-10.55-28.09-22.15-42.08-33.32.26-.38.5-.76.76-1.13,20.06,11.34,40.1,22.68,60.44,34.18-5.2,9.59-10.02,18.41-14.83,27.23ZM489.99,97.16c-1.36-1.19-3.13-1.86-4.7-2.75-14.62-8.3-29.25-16.58-43.87-24.87.15-.29.31-.58.46-.9l92.03,32.21c-16.38,5.18-31.03,7.52-43.92-3.69Z"/>
  </g>
  <path class="cls-1" d="M398.32,557.08c-3.12-4.16-7.25-5.14-12.01-2.79-1.42.7-2.67,1.7-3.96,2.63-46.48,33.97-92.98,67.95-139.47,101.94-1.27.92-3.09,1.71-3.58,2.98-1.17,2.9-3.08,6.57-2.1,8.95,1.1,2.7,5.05,6.18,7.64,6.08,5.39-.21,7.7,2.52,10.22,5.98,2.39,3.27,5.03,6.32,7.4,9.57,3.4,4.67,7.22,5.54,12.12,1.92,12.87-9.53,25.83-18.99,38.83-28.39,4.57-3.29,5.29-6.91,1.68-11.26-4.28-5.19-8.54-10.36-13.92-16.89,3.13-1.62,5.53-2.53,7.52-3.96,27.93-20.34,55.82-40.74,83.7-61.14,1.64-1.19,3.37-2.3,4.85-3.67,3.88-3.62,4.2-7.76,1.07-11.94h0ZM311.13,658.87c-14.27,10.47-28.47,20.91-42.54,31.24-3.77-5.04-8.1-10.92-12.81-17.22,1.1-.86,2.78-2.19,4.92-3.87,2.51,3.04,4.58,5.89,7.06,8.36.79.8,2.62.66,3.96.96.05-1.38.7-3.15.05-4.04-1.95-2.7-4.4-5.04-6.57-7.44,5.2-3.63,9.55-6.68,14.39-10.05.2.2,1.11,1.46,2.36,2.26,1.98,1.28,4.15,2.25,6.26,3.37-.57-2.09-.96-4.23-1.75-6.24-.56-1.38-1.65-2.57-2.6-3.99,1.88-1.55,3.56-2.96,5.52-4.58,1.78,2.08,2.87,3.82,4.4,5.02,1.22.95,2.97,1.28,4.49,1.91-.14-1.75.07-3.61-.51-5.2-.58-1.58-1.97-2.9-3-4.31,4.42-3.44,5.92-2.12,16.37,13.83ZM393.76,564.46c-.49,1.59-2.89,2.69-4.53,3.87-45.63,33.37-91.25,66.71-136.89,100.07-1.45,1.07-2.83,2.55-4.49,2.98-1.48.37-4.27.03-4.72-.84-.69-1.38-.26-3.59.38-5.21.42-1.07,2.01-1.71,3.1-2.5,46.19-33.76,92.37-67.51,138.56-101.25,1.76-1.29,3.7-2.36,7.32-4.66.65,3.42,1.82,5.73,1.26,7.56h0Z"/>
  <path class="cls-1" d="M1159.75,1293.73l4.17,6.45-5.27,3.21c-20.26,12.35-40.6,24.61-60.77,37.12-13.25,8.23-16.14,23.04-7.03,34.45,6.69,8.4,18.54,11.15,28.43,6.57,1.59-.72,3.13-1.57,4.62-2.48,21.17-12.89,42.38-25.72,63.42-38.78,3-1.86,5.85-4.52,7.68-7.44,3.5-5.61,2.06-12.64-2.68-17.47-4.49-4.54-11.51-6.11-17.46-3.23-5.01,2.42-9.7,5.5-14.49,8.39-13.28,8.06-26.55,16.13-39.79,24.28-5.71,3.52-7.14,7.6-4.36,11.81,2.75,4.17,7.1,4.6,12.89,1.08,15.53-9.42,31.01-18.88,46.5-28.34l5.15-3.15,4.08,6.31c-1.27.87-2.6,1.88-4.02,2.74-15.92,9.74-31.86,19.46-47.83,29.18-9.11,5.53-18.58,4.03-23.61-3.69-5.03-7.72-2.34-16.78,6.68-22.31,16.97-10.38,33.95-20.75,50.97-31.08,12.48-7.58,26.97-4.78,34.19,6.51,7.21,11.27,3.4,25.02-9.13,32.68-20.1,12.3-40.24,24.55-60.35,36.82-18.89,11.52-28.84,11.1-46.42-1.96l-5.61-8.69c-.6-2.82-1.42-5.62-1.72-8.48-1.22-11.65,2.67-21.78,12.64-28.15,22.62-14.46,45.78-28.13,69.1-42.36h0Z"/>
  <path class="cls-1" d="M1272.95,628.43l-6.99,3.45-2.82-5.4c-10.84-20.71-21.59-41.49-32.58-62.14-7.24-13.56-22.16-17.68-34.67-9.9-9.2,5.73-13.09,16.93-9.28,26.93.6,1.61,1.33,3.16,2.13,4.69,11.3,21.65,22.56,43.31,34.06,64.87,1.64,3.07,4.09,6.07,6.94,8.1,5.43,3.88,12.78,3.13,18.15-1.03,5.05-3.92,7.3-10.59,4.88-16.59-2.03-5.07-4.77-9.89-7.3-14.76-7.06-13.58-14.15-27.14-21.3-40.68-3.09-5.83-7.16-7.58-11.72-5.28-4.53,2.29-5.35,6.45-2.26,12.38,8.25,15.87,16.57,31.7,24.87,47.55l2.76,5.27-6.83,3.37c-.77-1.32-1.69-2.69-2.45-4.15-8.55-16.29-17.09-32.59-25.61-48.91-4.85-9.31-2.45-18.34,5.9-22.52,8.36-4.17,17.41-.76,22.27,8.47,9.12,17.36,18.23,34.72,27.27,52.11,6.65,12.76,2.48,26.52-9.73,32.51-12.2,5.97-25.94,1.05-32.67-11.77-10.8-20.56-21.55-41.14-32.32-61.71-10.11-19.32-8.8-28.9,6.18-44.75l9.42-4.65c2.94-.32,5.9-.88,8.85-.91,12.05-.13,22.08,4.54,27.71,14.76,12.79,23.19,24.72,46.84,37.2,70.67h-.01Z"/>
  <path class="cls-1" d="M543.03,1109.16c-42.26-2.23-84.51-4.41-126.78-6.54-10.42-.53-14.47,3.08-15.06,13.25-1.19,20.88-2.3,41.77-3.44,62.67-1.15,20.9-2.32,41.8-3.42,62.69-.62,11.54,3.39,16.03,15.06,16.63,31.14,1.67,62.29,3.37,93.44,4.66,3.46.14,7.75-1.47,10.44-3.69,11.51-9.47,22.73-19.3,33.68-29.4,2.39-2.21,4.35-5.97,4.54-9.13,2.03-31.93,3.73-63.88,5.42-95.81.54-10.59-3.2-14.76-13.88-15.33h0ZM511.88,1247.88c.28-5.2.12-10.93,1.17-16.47.35-1.95,3.52-4.69,5.58-4.83,5.81-.4,11.7.37,16.79.63-7.7,6.77-15.53,13.64-23.54,20.67ZM549.39,1123.87c-1.86,30.97-3.47,61.97-5.2,92.97-.05.91-.41,1.8-.79,3.46l-16.24-.84c-19.8-1.03-21.33.34-22.4,19.88l-.87,15.64c-2.59.04-4.74.18-6.88.08-28.43-1.45-56.86-2.91-85.3-4.4-9.42-.5-10.26-1.4-9.77-10.3,2.21-40.83,4.57-81.68,6.57-122.52.31-6.29,2.51-8.32,8.97-7.97,41.28,2.33,82.57,4.42,123.87,6.45,5.22.25,8.4,1.47,8.04,7.53h0Z"/>
  <g>
    <path class="cls-1" d="M2119.95,1020.83c-2.76-9.22-13.55-12.85-22.24-7.07-5.04,3.34-9.36,7.72-14,11.61-.51-.41-1.04-.82-1.57-1.22,0-1.51-.16-3.04.03-4.54.64-5.56.61-11.32,2.25-16.62,4.92-15.89-1.84-27.9-12.9-38.37-3.01-2.84-7.44-5.29-11.52-5.86-26.01-3.54-52.08-6.48-78.14-9.7-8.24-1.01-13.99,2.25-17.83,9.17l-17.47,135.99c1.38,5.66,4.77,9.8,10.03,12.52l101.79,12.34c8.56-2.59,12.44-8.41,13.24-16.95,1-10.52,2.33-21.04,4.15-31.47.53-3.08,2.51-6.62,4.97-8.6,10.67-8.6,21.79-16.68,32.71-24.99,5.43-4.15,8.59-9.27,6.51-16.22h0ZM2060.09,967.51c7.51,5.86,12.28,12.62,17.2,20.92l-19.58-2.38,2.39-18.54ZM2061.43,1104.64c-.68,4.89-4.46,4.82-8.28,4.36-13.34-1.62-26.68-3.23-40.03-4.85-16.1-1.96-32.2-3.88-48.29-5.89-7.93-.97-8.82-2-7.86-9.48,5.23-40.95,10.56-81.89,15.71-122.87.68-5.41,2.43-8.36,8.85-7.52,21.37,2.79,42.77,5.25,64.16,7.87,1.22.14,2.43.54,4.4.99-.94,7.31-1.72,13.89-2.66,20.45-.69,4.91,1.25,7.36,6.44,7.82,6.79.59,13.55,1.58,21.24,2.52-1.52,11.84-2.94,23.47-4.62,35.05-.15,1.17-1.75,2.24-2.86,3.13-2.97,2.36-5.8,5.02-9.12,6.83-11.38,6.22-16.64,16.74-21.22,27.78-2.29,5.52.07,8.53,6.1,7.57,7.11-1.12,14.18-2.63,22-4.12-1.33,10.38-2.53,20.36-3.94,30.34h0ZM2063.55,1064.31c-5,1.36-8.88,2.42-12.75,3.48-.35-.43-.7-.86-1.04-1.28,2.01-3.41,4.01-6.79,6.63-11.22,2.7,3.4,4.47,5.62,7.17,9.02ZM2069.75,1057.32c-1.57-1.95-3.37-4.17-4.97-6.16,8.92-6.66,17.27-12.92,26.09-19.54,1.53,1.88,3.31,4.1,4.89,6.04-8.86,6.69-17.17,12.98-26.01,19.66ZM2110.67,1024.56c-1.6,2.87-3.85,5.39-6.71,9.15-2.32-3.56-3.77-5.81-6.34-9.78,3.86-1.16,7.21-2.37,10.68-2.98.6-.11,2.74,2.95,2.37,3.61Z"/>
    <path class="cls-1" d="M2054.1,1009.65c-.57,4.03-3.93,4.24-7.41,3.81-10.37-1.32-20.75-2.54-31.12-3.79s-20.76-2.55-31.14-3.75c-3.5-.41-6.69-1.41-6.21-5.46.49-4.15,4.02-4.21,7.4-3.82,20.76,2.5,41.51,5.02,62.26,7.56,3.36.41,6.8,1.29,6.22,5.46Z"/>
    <path class="cls-1" d="M2032.42,1026.07c-.57,1.74-4.51,3.54-6.82,3.42-7.43-.36-14.83-1.61-22.23-2.5-7.4-.9-14.39-1.78-21.6-2.59-3.56-.41-6.9-1.82-5.66-5.61.56-1.74,4.55-3.69,6.78-3.46,14.64,1.38,29.23,3.33,43.84,5.12,3.43.42,6.98,1.75,5.71,5.62h-.01Z"/>
    <path class="cls-1" d="M2030.36,1044.45c-2.3,1.28-4.65,3.73-6.87,3.62-7.66-.37-15.25-1.63-22.88-2.55-7.2-.87-14.47-1.4-21.55-2.83-2.18-.43-3.82-3.37-5.72-5.18,2.29-1.29,4.72-3.86,6.86-3.66,14.87,1.41,29.68,3.2,44.44,5.39,2.11.32,3.81,3.4,5.71,5.2h.01Z"/>
    <path class="cls-1" d="M2027.97,1063.03c-2.3,1.25-4.66,3.69-6.91,3.58-7.43-.34-14.83-1.59-22.23-2.49s-14.38-1.79-21.6-2.59c-3.51-.4-6.97-1.59-5.95-5.43.46-1.74,4.42-3.91,6.59-3.7,14.85,1.41,29.68,3.2,44.44,5.4,2.11.32,3.78,3.41,5.66,5.23h0Z"/>
    <path class="cls-1" d="M2043.41,1093.74c-1.87,1.32-3.84,3.88-5.58,3.75-9.34-.7-18.67-1.83-27.89-3.4-1.72-.29-2.97-3.25-4.43-4.98,1.86-1.32,3.73-3.7,5.61-3.73,4.87-.04,9.72.97,14.58,1.55,4.45.55,9.01.65,13.25,1.83,1.83.51,3.01,3.24,4.47,4.96h-.01Z"/>
  </g>
  <path class="cls-1" d="M1801.07,1259.78c-.89-2.19-4.08-4.98-6.15-4.9-4.35.16-6.21-2.03-8.25-4.83-1.91-2.62-4.04-5.1-5.95-7.72-2.75-3.77-5.83-4.46-9.77-1.54-10.37,7.69-20.82,15.3-31.29,22.87-3.69,2.66-4.26,5.57-1.36,9.07,3.46,4.19,6.88,8.36,11.22,13.62-2.52,1.32-4.46,2.04-6.06,3.2-22.51,16.39-44.99,32.83-67.46,49.28-1.31.96-2.71,1.86-3.9,2.96-3.12,2.92-3.39,6.24-.87,9.61,2.51,3.36,5.84,4.15,9.68,2.26,1.14-.57,2.15-1.37,3.18-2.13,37.47-27.38,74.94-54.75,112.42-82.14,1.02-.75,2.48-1.38,2.87-2.4.95-2.34,2.48-5.31,1.69-7.22h0ZM1741.51,1269.38c11.49-8.44,22.94-16.86,34.27-25.18,3.04,4.07,6.53,8.8,10.33,13.88-.88.7-2.24,1.76-3.97,3.12-2.01-2.45-3.69-4.74-5.68-6.73-.64-.66-2.11-.54-3.2-.78-.04,1.11-.57,2.53-.04,3.25,1.57,2.17,3.55,4.07,5.3,6-4.2,2.92-7.7,5.37-11.6,8.1-.18-.17-.91-1.19-1.9-1.83-1.6-1.03-3.35-1.82-5.04-2.73.45,1.69.77,3.41,1.4,5.04.45,1.11,1.34,2.05,2.1,3.21-1.52,1.25-2.87,2.38-4.45,3.69-1.42-1.67-2.32-3.07-3.55-4.04-.99-.76-2.39-1.03-3.62-1.54.11,1.41-.04,2.91.42,4.19.47,1.29,1.59,2.34,2.41,3.48-3.55,2.78-4.77,1.71-13.19-11.14h0ZM1795.98,1264.19c-.34.86-1.61,1.37-2.49,2.01-37.23,27.21-74.44,54.41-111.67,81.6-1.42,1.04-2.98,1.9-5.91,3.75-.51-2.75-1.45-4.62-1-6.1.39-1.28,2.33-2.16,3.65-3.12,36.77-26.89,73.53-53.77,110.33-80.63,1.17-.87,2.28-2.07,3.6-2.41,1.19-.3,3.46-.01,3.81.68.56,1.11.2,2.9-.31,4.2h0Z"/>
  <g>
    <path class="cls-1" d="M1264.29,98.81c1.04-1.09,3.86-.55,5.85-.76-.03,1.95.81,4.61-.2,5.73-4.17,4.65-8.9,8.85-13.42,13.22l-4.42-3.87c4.01-4.82,7.83-9.81,12.17-14.31h.01Z"/>
    <path class="cls-1" d="M1263.59,0c-1.45.14-3.02.4-4.01,0h4.01Z"/>
    <path class="cls-1" d="M1392.46,0h-9.65c-.62.67-1.33,1.41-2.11,2.21-.83.83-1.75,1.59-2.93,2.66L1372.21,0h-12.93l12.73,11.17c-7.75,9.84-8.02,20.66-6.74,32.29,2.76,25.14-17.79,47.14-44.52,48.71-26.64,1.55-49.14-17.86-50.25-43.32-1.12-26.13,19.58-48.09,46.1-48.16,3.54,0,6.98-.21,10.33-.68h-36.92c-16.95,9.52-28,27.8-27.32,48.62.99,29.98,27.69,53.21,58.98,51.29,31.25-1.91,54.55-27.98,51.23-58.32-1.37-12.44,1.59-22.28,10.65-31.42,4.15-4.16,7.11-7.39,8.9-10.17h0Z"/>
    <path class="cls-1" d="M1371.18,92.99c2.01.04,4.32-.5,5.96.28,2.14,1,3.74,3.07,5.57,4.67.51-.22,1.03-.45,1.56-.66,1.48,3.59,5.14,9.44,4.07,10.42-5.22,4.77-7.63-1.94-11.14-4.1-2.05-1.26-4.12-2.94-5.34-4.91-.91-1.51-.51-3.79-.69-5.72h.01Z"/>
    <path class="cls-1" d="M1317.53,117.53c.95-.61,1.9-1.21,2.83-1.8,1.95,1.21,5.38,2.23,5.61,3.69.76,5.19.77,10.56.24,15.78-.11,1.12-3.7,1.92-5.69,2.87-1-6.83-1.99-13.68-2.98-20.52h-.01Z"/>
    <path class="cls-1" d="M1390.72,38.78c7.07.18,13.97.3,20.86.72.49.03,1.41,2.62,1.04,3.67-.37,1.04-2.02,2.24-3.21,2.34-5.14.5-10.31.82-15.48.76-1.3-.01-2.87-1.49-3.74-2.67-.5-.68.18-2.19.53-4.83Z"/>
    <path class="cls-1" d="M1226.28,48.06c6.26-.68,12.58-.8,18.88-.72.27,0,.49,3.69.72,5.65-6.68.67-13.35,1.33-22.06,2.2,1.21-3.66,1.65-7.03,2.48-7.12h-.01Z"/>
    <path class="cls-1" d="M1291.36,23.6c.79-.13,2.94-.49,5.1-.86,0,2.25.89,5.07-.16,6.65-8.51,12.81-7.75,24.77,2.2,36.53,1.15,1.34.58,4.06.83,6.14-2.17-.38-4.96-.04-6.42-1.24-12.7-10.38-13.97-33.79-1.53-47.22Z"/>
  </g>
  <g>
    <path class="cls-1" d="M1562.05,1316.77c-.07-25.7-16.76-46.68-40.79-51.75-24.95-5.25-48.37,6.64-58.98,30.51-2.25,5.07-4.68,6.91-10.37,7.12-10.91.41-19.15,6.12-25.13,15.41-1.53,2.36-4.54,4.4-7.28,5.21-6.84,2-12.1,7.69-13.2,16.12-.88,6.77,1.52,12.8,7.64,15.66,21.14,9.84,42.45,19.38,63.93,28.43,6.4,2.69,12.74.46,17.27-5.21,5.39-6.76,6-13.98,2.66-20.61-1.18-2.32-1.63-5.69-.94-8.15,2.93-10.32,2.07-20.07-4.68-28.39-3.33-4.1-3.18-7.11-1.1-11.38,5.14-10.56,13.15-15.25,23.39-13.14,9.31,1.92,15.12,9.8,15.15,21.33.08,34.74,0,69.49.09,104.24h10.86c0-35.37.07-70.77-.07-106.15-.07-15.22-9.8-26.92-24.45-30.14-13.36-2.96-27.06,4-33.62,17.08-1.15,2.3-2.25,4.61-3.58,7.35-3.2-1.4-5.96-2.61-9.38-4.11,5.94-17.21,16.66-28.52,34.52-31.06,25.86-3.65,46.85,14.55,47.13,41.14.39,35.29.16,70.61.11,105.9h10.77c.14-35.13.15-70.27.03-105.4h0ZM1488.09,1369.05c-1.9,3.71-4.17,5.68-8.46,3.77-19.52-8.68-39.02-17.36-58.56-25.99-2.21-.97-4.55-1.65-6.82-2.45.96-.96,1.94-1.95,2.91-2.91-.12-5.52,3.69-8.53,8.54-6.4,19.79,8.65,39.5,17.47,59.28,26.19,3.63,1.62,5.15,3.77,3.1,7.8h0ZM1474.62,1320.39c11.99,5.73,15.8,15.99,10.22,29.1-17.03-7.6-33.57-14.99-50.14-22.37,6.48-12.88,16.76-16.82,28.88-11.72,3.73,1.58,7.4,3.24,11.05,4.99h0Z"/>
    <path class="cls-1" d="M1378.81,1396.62v5.71c2.59.63,6.06,2.59,7.53,1.61,2.86-1.92,4.88-5.36,6.61-8.52.39-.74-2.17-4.27-2.71-4.12-3.14.87-6.13,2.42-9.13,3.82-.83.4-1.53,1-2.3,1.51h0Z"/>
    <path class="cls-1" d="M1456.71,1400.09c3.32,3.41,5.22,7.1,7.4,7.27,5.37.43,6.55-4.37,5.85-8.39-.45-2.52-3.33-4.61-5.12-6.89-2.34,2.29-4.68,4.6-8.13,8.01h0Z"/>
    <path class="cls-1" d="M1401.32,1377.69c4.04,2.82,7.28,5.83,7.86,5.37,3.29-2.49,6.06-5.74,8.54-9.07.22-.29-3.85-4.81-4.49-4.48-3.63,1.82-6.82,4.5-11.93,8.18h.01Z"/>
    <path class="cls-1" d="M1429.09,1389.5c3.65,2.82,5.53,5.48,7.55,5.6,5.69.32,6.61-4.87,7.14-8.8.23-1.65-2.99-3.77-4.65-5.65-2.87,2.53-5.75,5.07-10.04,8.85h0Z"/>
    <path class="cls-1" d="M1403.42,1411.36c3.84,2.54,7.25,5.48,7.77,5.04,2.99-2.54,5.6-5.7,7.52-9.13.34-.61-4.38-5.16-4.8-4.89-3.27,2.13-6.06,5-10.49,8.97Z"/>
    <path class="cls-1" d="M1444.58,1419.33c0,.92-.04,1.9-.18,2.84h-13.63c3.92-3.67,6.63-6.18,9.32-8.69,1.6,1.95,4.51,3.91,4.49,5.85Z"/>
  </g>
  <g>
    <path class="cls-1" d="M860.22,105.42c-5.75,1.99-11.06,5.15-16.56,7.8-.41-.53-.8-1.05-1.21-1.57.39-1.47.64-2.99,1.21-4.4,2.06-5.21,3.55-10.81,6.51-15.53,8.9-14.17,5.49-27.46-2.48-40.31-2.17-3.48-5.83-6.94-9.61-8.48-24.23-9.84-48.71-19.09-73.07-28.61-7.71-3.02-14.12-1.26-19.64,4.48l-52.32,127.26c-.15,5.82,2.05,10.65,6.42,14.58l95.26,36.98c8.96-.4,14.23-5.07,17.22-13.13,3.71-9.94,7.74-19.79,12.21-29.43,1.31-2.86,4.16-5.78,7.06-7.1,12.56-5.69,25.42-10.77,38.16-16.13,6.33-2.67,10.72-6.85,10.52-14.1-.27-9.59-9.76-15.75-19.68-12.3ZM835.88,51.44c5.73,7.51,8.59,15.22,11.19,24.45l-18.34-7.11s7.14-17.34,7.14-17.34ZM786.89,145.8c-3.65,4.77-2.17,8.26,3.93,8.82,7.17.66,14.39.93,22.35,1.42-3.98,9.7-7.75,19.08-11.72,28.38-1.92,4.57-5.56,3.57-9.13,2.17-12.5-4.85-24.98-9.68-37.47-14.52-15.07-5.86-30.14-11.68-45.18-17.57-7.43-2.91-8.01-4.11-5.14-11.1,15.73-38.35,31.55-76.64,47.22-115.01,2.06-5.08,4.53-7.49,10.52-5.11,19.94,7.97,40.01,15.6,60.01,23.4,1.15.45,2.21,1.12,4,2.04-2.81,6.85-5.27,13.01-7.89,19.13-1.95,4.58-.72,7.43,4.19,9.15,6.42,2.24,12.7,4.87,19.89,7.66-4.55,11.06-8.97,21.96-13.61,32.78-.46,1.08-2.28,1.73-3.58,2.32-3.5,1.55-6.93,3.42-10.61,4.37-12.64,3.21-20.45,12.1-27.77,21.66ZM814.01,145.92c-5.2.09-9.23.16-13.25.22-.23-.5-.45-.99-.68-1.49,2.83-2.79,5.65-5.58,9.34-9.22,1.73,3.94,2.87,6.54,4.59,10.48ZM821.83,140.69c-1.02-2.26-2.18-4.87-3.2-7.19,10.35-4.25,20.06-8.26,30.32-12.48.99,2.2,2.14,4.77,3.16,7.05-10.3,4.29-19.98,8.34-30.28,12.63ZM869.95,119.07c-2.29,2.37-5.14,4.25-8.89,7.19-1.3-4.02-2.11-6.54-3.58-11.02,4.04-.17,7.59-.53,11.1-.25.61.04,1.88,3.53,1.37,4.08Z"/>
    <path class="cls-1" d="M819.11,90.72c-1.6,3.77-4.91,3.13-8.16,1.86-9.69-3.82-19.41-7.56-29.12-11.32-9.72-3.77-19.42-7.57-29.15-11.29-3.28-1.25-6.11-3.02-4.58-6.81,1.56-3.9,5-3.09,8.16-1.87,19.43,7.53,38.85,15.06,58.26,22.62,3.14,1.22,6.25,2.92,4.59,6.81Z"/>
    <path class="cls-1" d="M793.84,101.28c-1,1.54-5.29,2.32-7.49,1.65-7.1-2.17-13.92-5.2-20.86-7.89s-13.46-5.27-20.22-7.82c-3.33-1.28-6.19-3.46-4.02-6.82.99-1.55,5.37-2.45,7.47-1.69,13.8,4.94,27.4,10.4,41.08,15.74,3.21,1.26,6.3,3.41,4.05,6.85h0Z"/>
    <path class="cls-1" d="M787.07,118.54c-2.56.67-5.46,2.46-7.59,1.82-7.3-2.24-14.32-5.33-21.47-8.1-6.74-2.61-13.63-4.91-20.1-8.05-1.99-.96-2.82-4.2-4.19-6.41,2.55-.68,5.57-2.57,7.59-1.84,14.01,5.02,27.88,10.4,41.59,16.14,1.97.82,2.81,4.21,4.16,6.44h0Z"/>
    <path class="cls-1" d="M779.93,135.94c-2.56.65-5.48,2.41-7.62,1.76-7.1-2.16-13.93-5.19-20.86-7.87s-13.44-5.27-20.22-7.82c-3.29-1.24-6.33-3.25-4.34-6.72.89-1.57,5.3-2.7,7.33-1.96,14,5.02,27.88,10.4,41.58,16.16,1.97.82,2.78,4.23,4.12,6.45h0Z"/>
    <path class="cls-1" d="M786.85,169.44c-2.14.82-4.72,2.82-6.38,2.26-8.85-2.96-17.59-6.36-26.1-10.14-1.6-.7-2.02-3.88-3-5.91,2.14-.8,4.57-2.67,6.4-2.23,4.72,1.16,9.15,3.33,13.7,5.1,4.16,1.62,8.55,2.83,12.35,5.03,1.64.95,2.06,3.87,3.02,5.9h.01Z"/>
  </g>
  <path class="cls-1" d="M787.31,658.91c-1.27-1.69-3.02-2.34-4.7-2.98-4.8-1.79-10.92-1.8-13.08-.26-1.5-1.03-3.47-1.83-5.75-2.78-3.98-1.66-7.49-2.4-9.91-2.75.57-1.91,1.34-5.39.56-9.57-.54-2.9-1.64-8.72-6.3-10.48-4.28-1.63-9,1.17-11.18,3.19-2.21,2.04-3.02,4.35-3.94,7.03-.26.72-.47,1.37-.64,1.96-26.6-8.97-53.21-17.97-79.82-26.93-9.54-3.2-12.93-1.63-16.24,7.6-12.47,34.8-24.92,69.62-37.36,104.44-3.58,10.05-2.05,13.05,8.51,16.62,26.2,8.86,52.39,17.7,78.59,26.55-.14.33-.26.67-.39,1.03-15.1-2.49-30.21-4.85-45.26-7.52-2.39-.42-4.54-2.21-6.69-3.53-1.53-.93-2.89-2.13-4.3-3.21-.35,2.17-1.72,5.69-.85,6.33,3.51,2.61,7.51,5.48,11.71,6.19,37.77,6.54,75.61,12.64,113.43,18.87,10.75,1.76,13.82-.46,15.63-10.92,3.79-22.07,7.67-44.13,11.55-66.18,2.56-14.71,5.19-29.4,7.74-44.11.56-3.31.43-6.33-1.29-8.57h0ZM739.46,638.3c1.98-2.73,4.89-4.02,6.9-3.25,2.25.87,2.7,4.03,2.98,5.97.43,2.99-.33,5.43-.83,6.72l-8.9-3.02c-.45-.14-.89-.3-1.34-.45.39-1.99.8-3.98,1.19-5.97h0ZM747.86,653.49c-.69,5.46-1.11,10.24-2.02,14.93-.24,1.28-1.97,2.28-3,3.41-.91-1.42-2.63-2.9-2.57-4.28.23-5.03,1.04-10.02,1.71-15.46,1.59.38,3.35.79,5.88,1.4ZM718.03,775.36c-36.17-12.52-72.45-24.72-108.78-36.77-5.52-1.83-6.76-3.96-4.77-9.42,12.58-34.51,24.87-69.11,37.17-103.7,1.42-4.04,2.63-6.95,8.24-5,29.18,10.05,58.45,19.83,86.63,29.34-.85,7.55-2.44,14.17-1.94,20.62.2,2.62,4.74,6.62,7.6,6.86,2.83.25,7.48-2.84,8.69-5.58,2.07-4.67,2.09-10.21,3-15.64,1.68.41,3.1.7,4.5,1.13,6.32,1.98,8.41,5.96,6.29,11.92-12.05,33.67-24.2,67.29-36.01,101.04-2.03,5.85-4.27,7.4-10.61,5.2ZM781.36,673.7c-1,8.11-2.79,16.12-4.19,24.19-4.63,26.57-9.22,53.15-13.85,79.71-.54,3.09-.94,6.62-5.68,5.83-8.43-1.38-16.86-2.88-25.98-4.46l2.95-8.27c12.21-34.13,24.42-68.26,36.6-102.4,1.02-2.86,1.53-5.15,1.46-7.05,3.58,1.25,7.79-.47,9.7,1.67,2.11,2.4-.51,6.61-1.03,10.77h0Z"/>
  <path class="cls-1" d="M964.52,1158.63c-7.18.9-14.28,2.78-21.29,4.71-6.87,1.92-9.88,7.11-10.14,13.98-.31,8.28-.45,16.58-.7,25.68-19.03,4.37-38,8.69-56.96,13.1-24.3,5.66-48.54,11.6-72.9,17.03-7.01,1.55-12.51,4.33-15.52,11.02l2.22,9.13c8.85,17.08,17.75,34.16,26.58,51.25,5.69,11.02,9.96,13.13,22,10.38,32.95-7.55,65.89-15.13,98.82-22.69,2.02-.47,4.27-1.71,6.03-1.21,3.31.95,7.87,2.13,9.12,4.61,2.2,4.33-1.45,7.01-5.71,8.11-1.75.46-3.52.84-5.3,1.25-34.22,7.86-68.41,15.7-102.62,23.57-10.68,2.46-11.07,3.54-5.52,12.71.73,1.2.75,2.94.79,4.44.24,9.01,4.66,15.42,12.82,18.92,7.9,3.41,15.37,2.09,21.67-3.78,6.56-6.14,7.85-13.64,5-22.08-.57-1.67-1-3.4-1.61-5.52l33.58-7.72c1.02,9.11,2.86,18.21,12.35,21.79,4.58,1.73,10.35,2.4,15.03,1.26,12.81-3.08,16.49-14.49,11.22-31.67,17.29-6.72,22.06-11.96,20.63-22.54-1.22-9.02-7.86-14.2-21.64-16.45.26-13.08.49-26.23.81-39.39.47-18.92,1.23-37.85,1.37-56.78.04-5.53,1.9-7.97,7.25-8.77,5.12-.76,10.39-1.69,15.1-3.67,2.44-1.03,3.78-4.5,5.62-6.86-2.72-1.37-5.61-4.12-8.1-3.82h0ZM857.7,1232.94l6.07,24.97-20.88,4.81c-3.14-8.03-6.19-15.89-9.43-24.2l24.24-5.57h0ZM811.49,1269.85c-3.92-7.81-7.7-15.39-11.75-23.47l22.17-5.1c3.04,8.06,6,15.88,9.11,24.07l-19.53,4.49ZM823.23,1293.48c-1.94-3.92-3.82-7.89-5.84-12.05l18.5-4.25c3.06,8.23,5.91,15.89,8.77,23.53-10.08,3.72-17.22,1.31-21.43-7.23ZM856.6,1298.34c-3.14-8.15-6.15-15.97-9.3-24.15l19.54-4.49,6.06,24.9-16.3,3.74h0ZM870.41,1230.02l24.62-5.66c.91,9.02,1.72,17.24,2.57,25.63l-21.17,4.86-6.03-24.82h0ZM885.66,1291.65l-6.06-24.86,19.5-4.49c.92,9.11,1.75,17.26,2.59,25.66l-16.03,3.69ZM930.4,1277.14c-.18,1.96-2.18,4.64-4.02,5.37-3.89,1.58-8.23,2.09-12.62,3.11-.5-3.16-.87-5.19-1.17-7.23-1.91-13.35,4.26-21.12,18.5-23.29-.18,7.69-.05,14.91-.69,22.04h0ZM911.33,1247.01c-.24.04-.51-.14-2.14-.68-.83-8.23-1.67-16.58-2.51-24.98l24.31-5.58c4.7,22.94,1.15,28.5-19.66,31.25ZM855.72,1354.1c-3.5.25-7.25-2.61-9.59-3.54-1.6-8.18.88-12.68,6.04-12.8,3.35-.08,8.48,3.19,9.89,6.25,2.21,4.82-.96,9.73-6.34,10.09h0ZM928.25,1337.43c-4.95,2-9.28-.86-10.61-6.24-1.25-5.04,1.27-8.94,6.1-10.14,5.18-1.3,9.12,1.01,11.47,9.06-1.65,1.86-3.71,6.03-6.95,7.32Z"/>
  <path class="cls-1" d="M2584.6,675.64c-5.26-1.19-6.75-4.4-8.24-8.4-1.41-3.75-3.13-7.37-4.54-11.13-2.02-5.37-5.46-7.19-11.17-4.95-15,5.91-30.07,11.72-45.16,17.45-5.3,2.01-6.97,5.32-4.68,10.43,2.72,6.1,5.42,12.19,8.85,19.87-3.46.76-6.02,1.03-8.32,1.9-32.47,12.47-64.89,25.02-97.32,37.56-1.91.74-3.88,1.37-5.68,2.32-4.72,2.5-6.15,6.4-4.27,11.23,1.87,4.82,5.6,6.82,10.83,5.78,1.56-.33,3.04-.96,4.53-1.54,54.05-20.87,108.12-41.76,162.18-62.64,1.46-.57,3.43-.87,4.26-1.95,1.91-2.5,4.74-5.56,4.45-8.1-.33-2.9-3.2-7.26-5.72-7.82h0ZM2515.79,676.03c16.6-6.45,33.13-12.88,49.49-19.24,2.26,5.83,4.87,12.6,7.7,19.88-1.3.54-3.28,1.4-5.8,2.48-1.59-3.57-2.83-6.85-4.54-9.86-.54-.99-2.34-1.32-3.56-1.95-.43,1.32-1.53,2.86-1.15,3.88,1.17,3.11,2.89,5.99,4.32,8.86-6,2.17-11.02,3.99-16.6,6.02-.15-.26-.68-1.7-1.65-2.79-1.57-1.74-3.39-3.24-5.12-4.86-.03,2.16-.23,4.33-.03,6.47.16,1.49.91,2.9,1.44,4.52-2.24,1.03-4.24,1.95-6.56,3-1.15-2.45-1.73-4.41-2.89-5.95-.92-1.24-2.52-2-3.82-2.99-.34,1.71-1.03,3.45-.89,5.14.12,1.69,1.11,3.29,1.72,4.92-5.2,2.19-6.3.53-12.05-17.53h0ZM2582.76,687.12c-.69.92-2.4,1.13-3.67,1.63-53.71,20.74-107.4,41.48-161.11,62.21-2.05.79-4.2,1.33-8.33,2.62.3-3.46-.19-5.99.85-7.61.89-1.41,3.51-1.84,5.41-2.58,53.06-20.5,106.11-41.01,159.17-61.5,1.69-.66,3.43-1.74,5.14-1.73,1.53.03,4.13,1.08,4.34,2.03.28,1.5-.73,3.53-1.79,4.92h0Z"/>
  <g>
    <path class="cls-1" d="M1910.88,1368.04c-6.75-6.99-18.06-5.49-23.12,3.5-2.93,5.19-4.74,10.98-7.05,16.51-.66-.13-1.31-.28-1.98-.4-.72-1.36-1.56-2.65-2.1-4.06-2.03-5.24-4.73-10.38-5.75-15.82-3.04-16.33-14.66-24.06-29.41-28.52-4-1.2-9.11-1.44-13-.14-24.83,8.3-49.44,17.16-74.17,25.77-7.82,2.73-11.41,8.16-11.63,16.01l15.33,41.27h10.25c-4.74-12.75-9.49-25.48-14.26-38.2-1.92-5.12-1.73-8.53,4.38-10.61,20.34-6.91,40.58-14.14,60.86-21.24,1.15-.41,2.41-.59,4.38-1.05,2.57,6.93,4.95,13.13,7.18,19.4,1.67,4.69,4.54,6.02,9.38,4.13,6.33-2.46,12.82-4.56,20.11-7.11,4.16,11.22,8.32,22.21,12.24,33.29.41,1.11-.51,2.75-1.08,4.04-1.54,3.41-2.85,7.03-4.95,10.1-1.63,2.37-2.86,4.79-3.81,7.26h19.37c-2.02-.91-4.2-1.9-6.19-2.8,4.84-9.86,9.35-19.11,14.13-28.9,2.24,1.01,4.85,2.19,7.17,3.23-4.69,9.69-9.08,18.82-13.76,28.48h11.7s.04-.08.05-.12c5.5-12.37,11.64-24.47,17.5-36.69,2.91-6.1,3.33-12.05-1.78-17.33h0ZM1839.19,1364.45l-6.53-17.58c9.42,1.92,16.83,5.85,25.09,11.07l-18.55,6.51h0ZM1902.64,1386.56c-3.73-2.16-6.07-3.53-10.22-5.94,2.91-2.73,5.31-5.28,8.13-7.35.49-.36,3.81,1.42,3.81,2.17-.09,3.27-.94,6.49-1.72,11.11Z"/>
    <path class="cls-1" d="M1846.98,1387.08c1.38,3.85-1.53,5.52-4.82,6.66-9.85,3.4-19.68,6.87-29.5,10.32-9.83,3.45-19.69,6.87-29.5,10.36-3.31,1.19-6.63,1.69-8.08-2.13-1.5-3.92,1.63-5.53,4.81-6.66,19.68-6.91,39.34-13.81,59.02-20.69,3.18-1.12,6.67-1.84,8.09,2.13h-.01Z"/>
    <path class="cls-1" d="M1835.31,1411.27c.3,1.8-2.37,5.15-4.49,6.07-4.21,1.83-8.58,3.36-12.97,4.83h-28.15c12.54-4.69,25.23-8.99,37.89-13.41,3.25-1.13,7.03-1.51,7.71,2.5h0Z"/>
  </g>
  <g>
    <path class="cls-1" d="M1786.21,963.56l-1.19-7.14c-10.88-7.4-21.15-16.01-32.88-21.81-8.66-4.28-14.6-10.18-20.19-17.18-10.08-12.62-22.78-14.85-37.38-7.1-3.62,1.92-7.67,3.65-11.7,4.11-14.45,1.7-25.26,7.06-26.52,22.87-3.54.55-6.45,1.13-9.41,1.47-21.11,2.58-34.38,13.37-38.61,34.12-.37,1.87-3.14,3.17-4.31,5.04-2.29,3.67-5.99,7.65-5.79,11.32.18,3.33,4.74,6.48,7.48,9.6,1.72,1.96,4.54,3.48,5.3,5.7,5.22,15.29,9.99,30.73,14.99,46.09,4,12.35,13.51,18.19,26.81,16.09,35.45-5.56,70.92-11.18,106.36-16.93,12.85-2.09,19.91-10.53,19.69-23.15-.27-16.35-.77-32.7-.99-49.05-.03-1.9.75-4.02,1.79-5.62,1.94-2.99,4.34-5.65,6.55-8.44h0ZM1762.43,950.87c-16.24,6.62-17.66,9.23-14.89,25.65.8,4.75,2.09,9.49,2.14,14.25.03,2.34-1.71,5.97-3.62,6.72-1.67.68-4.77-1.71-7.09-2.99-1.71-.95-3.2-2.3-4.78-3.46-.83,2.01-2.17,3.98-2.34,6.04-.2,2.33,1.38,4.92.84,7.07-.64,2.55-2.74,4.77-4.21,7.12-2.25-1.75-5.96-3.15-6.49-5.31-2.13-8.63-3.25-17.47-4.77-26.26-2.67-15.63-7.71-19.19-23.68-16.67-4.82.75-9.66,1.54-14.72,2.34,2.25-12.14,16.57-25.28,32.15-29.1,19.58-4.81,36.48.28,51.47,14.59h0ZM1676.58,922.92c8.19-2.37,16.41-4.71,24.42-7.62,12.89-4.67,19.26-2.37,28.05,10.89l-64.28,10.23c.2-8.57,5.23-11.57,11.8-13.5h0ZM1638.28,948.06c15.5-3.49,31.44-5.24,46.35-7.61-4.95,7.84-9.7,15.59-14.73,23.19-1.07,1.61-2.95,3.44-4.72,3.74-16.02,2.79-32.06,5.24-48.16,7.81-.83-11.72,8.12-24.15,21.26-27.13h0ZM1609.49,991.95c-1.57-.34-3.73-1.98-3.97-3.32-.23-1.28,1.42-3.23,2.74-4.29,1.02-.83,2.79-.83,4.24-1.08,28.28-4.52,56.57-9.01,84.85-13.52,5.22-.83,9.95-.83,11.48,6.97l-33.5,5.33c-19.76,3.15-39.52,6.29-59.26,9.42-2.18.33-4.51.93-6.57.5h0ZM1758.69,1042.56c-36.14,5.87-72.3,11.63-108.49,17.26-7.44,1.16-13.93-2.19-16.15-8.7-5.79-17.05-11.06-34.28-16.72-52.01l92.32-14.7c1.54,3.57,3.09,6.28-1.68,9.55-6.34,4.31-2.39,10.78-1,15.92.6,2.26,5.16,4.1,8.27,4.98,5.08,1.45,9.85,2.41,10.06,8.97.08,2.84.16,6.19,1.67,8.39,1.65,2.37,5.15,5.27,7.48,4.99,2.43-.29,5.19-3.77,6.36-6.44.92-2.12.35-5.53-.83-7.69-3.42-6.2-1.71-11.61,1.69-17.11,14.85-2.09,15.29-2.95,14.19-28.88l14.22-2.26c.39,12.4.81,24.55,1.15,36.67.15,5.28.27,10.57.24,15.85-.07,8.39-4.35,13.84-12.77,15.21h0ZM1774.22,966.04c-.51.58-1.83.54-2.79.68-5.57.91-11.13,1.79-16.67,2.67-.7-.76-1.41-1.51-2.11-2.26,2.1-2.33,3.75-5.72,6.38-6.76,4.23-1.65,9.09-2.08,13.73-2.34,1.69-.09,3.5,1.76,5.26,2.75-1.25,1.76-2.34,3.65-3.79,5.25h0Z"/>
    <path class="cls-1" d="M1663.09,907.27c-.95,2.01-3.44,3.37-5.26,4.99-.66-2.09-1.38-4.17-1.98-6.29-.69-2.36-.49-5.54-2.03-7.01-6.42-6.03-6.57-12.37-2.32-19.4l4.4-.7c-.23,8.05,2.47,15.04,7.37,21.53,1.15,1.51.76,4.91-.18,6.87h-.01Z"/>
    <path class="cls-1" d="M1698.45,896.61c-.95,1.24-3.09,2.01-4.76,2.08-.6.03-1.5-2.5-1.96-3.95-.65-2.07-.35-4.79-1.64-6.25-4.46-5.07-4.15-9.9-.41-15l2.93-.46c2.45,6.06,5.11,12.05,7.22,18.21.51,1.51-.3,3.98-1.37,5.37h-.01Z"/>
    <path class="cls-1" d="M1627.27,920.99c-.68,1.41-2.13,2.46-4.36,4.94-1.29-2.78-3.28-5.06-2.74-6.23,2.17-4.73.14-7.55-3.14-10.72-4.54-4.42-5.03-9.84-1.73-15.14.76-1.21,3.14-1.45,4.8-2.13.61,1.58,2.17,3.61,1.67,4.67-2.14,4.44-.12,7.15,2.97,10.07,4.35,4.13,5.14,9.2,2.55,14.54Z"/>
    <path class="cls-1" d="M1745.22,902.91c-.14.95-3.01,1.54-4.63,2.29-.69-1.54-2.39-3.58-1.9-4.57,2.43-4.79-.22-7.49-3.28-10.64-4.39-4.52-4.81-9.9-1.5-15.22.69-1.11,2.76-1.94,4.19-1.92,1.04,0,2.07,1.61,3.37,2.73-5.52,6.99,1.84,10.19,3.79,15.13,1.42,3.58.51,8.18-.04,12.22h0Z"/>
    <path class="cls-1" d="M1658.36,1012.62c-1.56,4.27-2.11,8.47-4.49,11.14-1.21,1.36-8,.65-8.28-.28-1.73-5.69-2.7-11.69-2.87-17.62-.03-.92,6.27-3.62,7.83-2.66,3.09,1.87,4.92,5.72,7.81,9.42Z"/>
    <path class="cls-1" d="M1678.54,1035.06c-1.69,4.48-2.29,8.61-4.65,11.22-1.19,1.33-7.89.61-8.19-.36-1.78-5.64-2.81-11.59-3.01-17.47-.04-1.04,6.21-3.88,7.59-3.02,3.23,2.07,5.24,5.89,8.25,9.61h0Z"/>
    <path class="cls-1" d="M1708.44,1030.27c.28,1.65,1.4,3.85.68,4.85-1.96,2.79-4.54,7.07-7.13,7.24-7.49.49-7.36-6.03-8.38-11.14-.98-4.87-.94-9.94,4.97-10.78,2.71-.4,6.25,2.87,8.93,5.03,1,.79.68,3.15.96,4.81h-.04,0Z"/>
    <path class="cls-1" d="M1688.12,1007.57c.33,1.9,1.56,4.37.77,5.58-1.76,2.67-4.39,6.49-6.93,6.7-7.7.61-7.55-5.94-8.54-11.06-.95-4.87-.94-9.96,5.23-10.69,2.67-.33,6.02,2.58,8.55,4.62,1.02.8.69,3.17.96,4.85h-.07.01Z"/>
  </g>
  <g>
    <path class="cls-1" d="M98.31,365.72c20.38-15.97,26.78-35.82,19.84-59.57-6.64-22.73-21.07-29.88-44.22-22.04-.77-2.78-1.4-5.58-2.33-8.28-3.21-9.3-7.81-18.37-3.12-28.59.46-1-1.8-3.19-3.39-5.77-5.22,8.51-6.07,15.83-3.78,23.57,2.22,7.49,4.49,14.96,6.95,23.15-8.62-3.41-15.8-6.25-23.82-9.44,2.21-11.02-.11-21.32-8.97-29.84-7.55-7.26-11.63-15.87-9.78-26.56.87-4.99-1.76-6.78-6.87-6.72-4.61.05-9.22.11-13.82.12v6.1h4.38c7.45,0,10.53,4.01,9.22,12.04H4.99v6.44c3.08.01,6.17.01,9.26.01-1.9,6.31-5.01,11.02-9.26,14.13v81.64c5.96-1.78,13.76-.37,23.57,4.19-2.05,7.02-3.85,14.21-6.26,21.2-1.5,4.36-.07,5.74,4.76,5.75,2.6-8.35,5.23-16.74,8.23-26.31,17.63,8.36,34.45,16.33,51.65,24.49-1.07,4.23-1.92,7.64-2.78,11.03,3.56,1.81,6.53-.39,8.9-6.6,5.39,4.45,10.38,8.56,17.1,14.12-19.46,6.93-36.92,3.62-55.12,3.02.75-3.73,1.33-6.68,2.02-10.15-1.61-.61-3.31-1.22-5.33-1.98-1.33,3.73-2.52,7.11-3.93,11.07-14.56-1.71-29.14-3.4-42.81-8.78v6.6c28.45,8.63,57.72,11.07,87.33,10.51,3.94-.08,7.93-.71,11.76-1.59,11.37-2.65,13.47-9.51,5.34-17.51-3.28-3.21-7.02-5.99-11.11-9.44h0ZM22.39,242.65c4.12,5.2,7.91,10.02,12.37,15.67H10.29c4.24-5.49,7.87-10.21,12.1-15.67ZM6.99,329.48v-64.06h31.22c0,4.46.22,8.51-.12,12.51-.12,1.36-1.31,3.23-2.55,3.81-18.38,8.69-21.36,25.06-22.6,42.31-.11,1.42.11,2.87.2,5.07-2.11.13-4.08.24-6.15.37ZM87.06,359.55c-20.98-9.64-42.27-18.61-63.38-27.97-1.63-.72-3.71-2.59-3.85-4.08-1.06-11.31.84-22.14,7.7-31.62,8.8-12.14,28.07-12.42,37.31-.55.96,1.24.37,3.61.47,5.06-4.69-.61-7.75-1-12.17-1.58,7.49,12.1,19.88,12.17,26.74,1.4-2.17-.95-4.26-1.88-7.96-3.52,2.09-2.52,3.51-5.6,5.95-6.95,10.41-5.75,19.98-3.92,27.23,4.62,15.38,18.12,11.28,50.34-8.12,64.23-3.24,2.33-5.73,2.88-9.92.96Z"/>
    <path class="cls-1" d="M84.5,252.94c-6.79-.07-14.18,4.77-14.05,9.2.09,4.12,7.33,8.93,13.59,9.01,6.46.09,14.28-5.03,14.15-9.27-.14-4.12-7.41-8.86-13.69-8.94h0ZM76.46,263.55c5.64-5.68,9.65-5.78,13.81,0h-13.81Z"/>
  </g>
  <path class="cls-1" d="M2607,1345.78v-9.98c-3.47-5.58-4.96-11.89-3.7-19.17.87-4.99-1.76-6.78-6.87-6.72-16.36.2-32.73.25-49.09-.03-5.84-.11-8.51,1.86-7.63,7.51,1.54,9.78-1.8,17.8-8.77,24.77-2.06,2.05-4.15,4.36-5.27,6.94-2.05,4.66-4.63,9.57-4.8,14.45-.57,17.8-.15,35.62-.3,53.44-.01,1.67-.22,3.54-.77,5.19h26.91c-1.45-2.44-3.58-4.7-3.96-7.26-.43-2.82.47-7.89,2.13-8.48,2.85-1.03,7.77-.49,9.97,1.41,3.89,3.33,6.57,8.51,8.04,14.33h5.88c-1.23-3.98-2.45-7.64-4.3-10.97-2.43-4.38-6.27-9.32-10.71-10.97-4-1.5-10.35-.07-14.37,2.23-4.82,2.74-5.04,8.39-3.16,13.63.49,1.33.81,2.73,1.34,4.52h-10.03v-36.2h50.4c0,12.81.27,25.31-.26,37.77h6.9v-62.47h22.39v-7.1h-19.09c4.24-5.49,7.87-10.21,12.1-15.67,2.37,3,4.65,5.87,6.99,8.85h0ZM2577.61,1377.42h-49.99v-17.72h49.99v17.72ZM2567.5,1353.21h-37.12c4.74-6.19,8.21-11.15,12.21-15.68,1.37-1.54,4.04-2.75,6.14-2.79,14.35-.24,28.7-.12,43.14-.12-3.7,12.3-12.03,18.59-24.37,18.59ZM2596.2,1328.16h-49.63v-12.04h40.41c7.45,0,10.53,4.01,9.22,12.04ZM2590.56,1418.33c-.08,1.15.04,2.3.14,3.85h6.83c-.04-.13-.07-.26-.08-.4-1.06-11.31.84-22.14,7.7-31.62.57-.79,1.19-1.54,1.86-2.23v-8.32c-12.93,9.18-15.34,23.61-16.44,38.71h0Z"/>
  <path class="cls-1" d="M2215.75,0c-.18.95-.35,1.9-.51,2.84-4.62,26.57-9.2,53.15-13.84,79.71-.54,3.09-.94,6.62-5.68,5.83-8.44-1.38-16.87-2.88-25.99-4.46l2.97-8.27c9.01-25.22,18.04-50.43,27.05-75.65h-6.32c-8.97,25.02-17.94,50.03-26.71,75.11-2.05,5.85-4.27,7.4-10.61,5.2-36.17-12.52-72.45-24.72-108.8-36.77-5.52-1.83-6.76-3.96-4.77-9.42,4.15-11.36,8.27-22.74,12.35-34.13h-6.32c-3.85,10.77-7.7,21.56-11.55,32.33-3.58,10.05-2.05,13.05,8.5,16.62,26.2,8.86,52.39,17.7,78.6,26.55-.14.33-.26.67-.39,1.03-15.1-2.49-30.21-4.85-45.26-7.52-2.39-.42-4.54-2.21-6.71-3.53-1.52-.93-2.87-2.13-4.3-3.21-.35,2.17-1.72,5.69-.84,6.33,3.51,2.61,7.51,5.48,11.7,6.19,37.78,6.54,75.61,12.64,113.44,18.87,10.75,1.76,13.82-.46,15.63-10.92,3.78-22.07,7.67-44.13,11.55-66.18.96-5.52,1.94-11.03,2.91-16.55h-6.1,0Z"/>
  <g>
    <path class="cls-1" d="M1631.34,75.94l-.2.14s.08,0,.15-.01h.15l-.09-.12h0Z"/>
    <path class="cls-1" d="M1631.34,75.94L1573.88,0h-6.03l35.18,46.48c-.26.22-.5.45-.75.67-12.02-10.82-24.03-21.67-36.05-32.51-1.3-1.17-2.44-2.58-3.94-3.46-5.22-3.04-8.75-6.82-11.11-11.18h-9.42c-.98,1.84-2.49,3.54-4.46,5.31-11.32,10.19-22.1,20.9-33.31,31.21-4.2,3.9-3.96,5.86,1.36,7.2,8.7,2.19,17.1,5.4,26.01,6.73,9.46,1.41,12.2,6.06,12.56,14.76.72,17.12,1.29,17.04,19.76,15.72,9.03-.65,18.08-1.19,27.12-2.04-.07.09-.15.17-.24.26,13.51-1.12,27.04-2.15,40.59-3.07.01,0,.08,0,.15-.01h.15l-.09-.12h0ZM1510.29,39.62c10.61-5.9,19.53-10.85,29.54-16.42.76,8.32,1.45,15.88,2.28,24.93-10.57-2.82-20.25-5.41-31.82-8.51h0ZM1532.73,21.36c-2.71,1.87-5.81,3.19-9.41,3.82,7.36-6.97,14.73-13.92,22.73-21.45,16.7,15.09,33.13,29.94,49.6,44.82-.31.34-.61.68-.91,1.03-14.68-9.42-29.68-18.42-43.85-28.42-6.34-4.46-11.6-4.31-18.16.2ZM1610.82,72.89c-.8.14-3.1.51-6.79.86-3.05.26-7.05.5-11.84.46-.26-.07-.51-.12-.77-.13-3.02-.17-6.15.33-9.23.54-10.58.75-21.18,1.49-32.08,2.25-1.56-17.62-3.06-34.46-4.66-52.48,24.88,15.95,48.71,31.24,72.96,46.8-1.95.54-4.53,1.17-7.59,1.7Z"/>
  </g>
</svg>