<?xml version="1.0" encoding="UTF-8"?>
<svg id="Layer_1" xmlns="http://www.w3.org/2000/svg" viewBox="0 0 310.36 381.32">
  <defs>
    <style>
      .cls-1 {
        fill: #f05151;
      }
    </style>
  </defs>
  <path class="cls-1" d="M310.3,112.94c-.58-10.39-.05-20.84-.14-31.26-.18-22.75-11.06-33.76-33.67-33.9-20.23-.12-40.46-.02-60.9-.02-.38-3.51-.69-5.41-.76-7.32C213.73,12.35,201.17.18,173.07.1c-14.4-.04-28.81-.26-43.21.12-14.86.38-25.7,8-31.05,21.52-2.99,7.54-3.11,16.21-4.81,26.02-20.14,0-40.88-.16-61.61.04C11.72,48.01.58,59.39.3,80.26c-.13,9.93.51,19.89-.15,29.77-.88,13.18,1.7,23.01,18.35,21.5,3.11,68.59,6.51,135.46,8.97,202.37.77,20.91,6.58,37.73,26.41,47.42h202.7c19.06-9.44,25.93-25.37,26.29-45.95.52-30.25,2.09-60.49,3.54-90.73,1.81-37.58,3.96-75.15,5.98-113.18,13.87.46,18.59-6.24,17.91-18.52h0ZM140.68,23.82c9.92-.05,19.85-.07,29.78.01,18.08.14,21.03,3.51,19.77,23.14h-70.25c-.64-20.03,2.2-23.04,20.7-23.15ZM261.74,258.92c-1.26,26.76-3.39,53.49-4.17,80.26-.39,13.21-5.48,18.61-18.86,18.52-55.63-.37-111.26-.21-166.89-.1-9.91.02-17.93-1.58-18.53-13.88-3.45-70.28-6.99-140.55-10.54-211.77h224.58c-1.88,42.9-3.6,84.94-5.59,126.97h0ZM286.44,93.98c-.02,3.87,0,7.74,0,12.68H25.92c-.77-1.51-1.56-2.33-1.58-3.17-.83-38.92-2.63-31.73,30.8-31.91,69.5-.36,139.01-.11,208.51-.11,15.3,0,22.9,7.51,22.79,22.51Z"/>
  <path class="cls-1" d="M107.53,317.76c.06,8.44-2.16,15.37-11.72,15.53-9.54.16-12.14-6.47-12.12-15.08.12-49.13.12-98.26,0-147.39-.02-8.45,2.14-15.33,11.72-15.54,9.65-.2,12.14,6.59,12.1,15.09-.11,24.81-.04,49.62-.04,74.44s-.1,48.63.06,72.95Z"/>
  <path class="cls-1" d="M167.15,317.12c.07,8.97-2.01,16.52-12.57,16.16-9.59-.34-11.31-7.58-11.29-15.92.15-48.63.14-97.27,0-145.9-.02-8.98,2.3-17.5,12.43-15.6,4.59.87,10.59,9.84,10.85,15.38,1.18,24.76.51,49.6.51,74.42s-.11,47.64.06,71.46h0Z"/>
  <path class="cls-1" d="M226.77,316.29c.07,8.69-1.12,16.82-11.75,16.98-10.64.16-12.14-7.73-12.11-16.57.15-48.14.14-96.28,0-144.41-.03-8.69,1.1-16.79,11.75-16.98,10.73-.19,12.15,7.82,12.09,16.57-.15,23.82-.05,47.64-.05,71.46s-.11,48.64.06,72.95h0Z"/>
</svg>